<svg width="213" height="80" viewBox="0 0 213 80" fill="none" xmlns="http://www.w3.org/2000/svg">
<path d="M1.7702 44.1219C1.24118 44.1219 0.813887 44.0368 0.488332 43.8665C0.162777 43.7388 0 43.5473 0 43.2919C0 42.9939 0.162777 42.7385 0.488332 42.5256C0.854582 42.2702 1.36326 42.0361 2.01437 41.8233C3.07242 41.4827 4.04909 40.9719 4.94436 40.2908C5.83964 39.6097 6.61283 38.4817 7.26394 36.9066C8.40339 34.1823 9.44109 31.6282 10.3771 29.2444C11.3537 26.8605 12.2694 24.5193 13.1239 22.2206C13.9785 19.9219 14.8534 17.5381 15.7487 15.0691C16.6847 12.5576 17.6614 9.83326 18.6787 6.89605C18.8822 6.3001 19.0653 5.70414 19.2281 5.10819C19.3909 4.51223 19.4926 3.87371 19.5333 3.19262C19.8995 3.06491 20.2658 2.93721 20.632 2.8095C20.9983 2.6818 21.3645 2.49024 21.7308 2.23483C22.097 1.97942 22.3412 1.59631 22.4633 1.08549C22.6261 0.574672 22.7685 0.234126 22.8906 0.0638527C22.9313 0.0212845 22.972 0 23.0127 0C23.0941 0 23.1551 0.0425691 23.1958 0.127705C23.2772 0.297978 23.3382 0.51082 23.3789 0.766229C23.4603 1.02164 23.5417 1.27705 23.6231 1.53246C24.5997 4.76764 25.6171 8.06667 26.6752 11.4296C27.7332 14.7925 28.7506 18.0489 29.7272 21.199C30.7446 24.3064 31.6602 27.1159 32.4741 29.6275C33.3287 32.0964 34.0001 34.0971 34.4885 35.6296C35.0582 37.3323 35.6686 38.6094 36.3197 39.4607C36.9708 40.3121 37.6423 40.908 38.3341 41.2486C39.0666 41.5891 39.8398 41.8445 40.6537 42.0148C41.3455 42.1425 41.8542 42.3554 42.1797 42.6533C42.5053 42.9088 42.668 43.1854 42.668 43.4834C42.668 43.7388 42.5053 43.9091 42.1797 43.9942C41.8542 44.0794 41.4269 44.1219 40.8978 44.1219C40.3281 44.1219 39.5549 44.0794 38.5783 43.9942C37.6016 43.9517 36.5639 43.8878 35.4651 43.8027C34.3664 43.7601 33.349 43.7388 32.4131 43.7388C31.6399 43.7388 30.8463 43.7388 30.0324 43.7388C29.2186 43.7388 28.4657 43.7601 27.7739 43.8027C27.0821 43.8027 26.492 43.8027 26.0037 43.8027C25.4747 43.8027 25.0474 43.7388 24.7218 43.6111C24.3963 43.4834 24.2335 43.2919 24.2335 43.0365C24.2335 42.7385 24.437 42.4831 24.8439 42.2702C25.2509 42.0574 25.7188 41.9084 26.2479 41.8233C27.5908 41.6104 28.5471 41.2486 29.1168 40.7378C29.6865 40.227 29.9714 39.631 29.9714 38.9499C29.9714 38.3114 29.829 37.3962 29.5441 36.2043C29.2999 34.9698 28.9947 33.6715 28.6285 32.3093C28.2622 30.9045 27.9163 29.67 27.5908 28.6058C27.5094 28.2653 27.3466 28.0737 27.1024 28.0312C26.899 27.946 26.5124 27.9035 25.9427 27.9035H14.4058C14.243 27.9035 14.0599 27.9886 13.8564 28.1589C13.6937 28.2866 13.5309 28.5845 13.3681 29.0528C13.246 29.4785 13.0425 30.1596 12.7577 31.0961C12.4728 31.99 12.188 32.9478 11.9031 33.9694C11.6182 34.9911 11.3741 35.9063 11.1706 36.7151C10.9671 37.5239 10.8654 38.0347 10.8654 38.2475C10.8654 39.184 11.2113 39.9715 11.9031 40.6101C12.5949 41.206 13.4291 41.6317 14.4058 41.8871C15.7487 42.2702 16.4202 42.6959 16.4202 43.1642C16.4202 43.4196 16.2574 43.6111 15.9318 43.7388C15.6063 43.824 15.179 43.8665 14.65 43.8665C14.1209 43.8665 13.3478 43.8452 12.3304 43.8027C11.313 43.7601 10.2346 43.7388 9.09519 43.7388C7.75228 43.7388 6.45006 43.8027 5.18853 43.9304C3.92701 44.0581 2.78756 44.1219 1.7702 44.1219ZM16.0539 25.7963H25.5154C26.0851 25.7963 26.3699 25.6899 26.3699 25.4771C26.3699 25.3919 26.3496 25.3068 26.3089 25.2217C26.3089 25.094 26.2886 24.9663 26.2479 24.8385L21.4866 9.25858C21.2425 8.49236 21.0593 8.10924 20.9373 8.10924C20.8559 8.10924 20.6931 8.47107 20.4489 9.19473L14.8941 24.8385C14.8127 25.094 14.7721 25.2642 14.7721 25.3494C14.7721 25.5622 14.8738 25.6899 15.0773 25.7325C15.3214 25.775 15.647 25.7963 16.0539 25.7963ZM83.1621 44.8882C82.7959 44.8882 82.0634 44.5689 80.9646 43.9304C79.9066 43.2919 78.8892 42.2702 77.9125 40.8655C77.7498 40.6526 77.2411 40.0141 76.3865 38.9499C75.5726 37.8857 74.5146 36.5661 73.2123 34.9911C71.9508 33.3735 70.5672 31.6282 69.0615 29.7552C67.5558 27.8822 66.0501 26.0092 64.5444 24.1362C63.0386 22.2632 61.6347 20.5392 60.3324 18.9641C59.0302 17.3465 57.9315 16.0056 57.0362 14.9414C56.1816 13.8347 55.6526 13.1536 55.4491 12.8982C55.1643 12.5151 54.9201 12.2596 54.7166 12.1319C54.5132 11.9617 54.33 11.8765 54.1673 11.8765C53.9638 11.8765 53.8213 12.0468 53.74 12.3873C53.6586 12.6853 53.6179 12.962 53.6179 13.2174C53.5772 15.3033 53.5365 17.7084 53.4958 20.4327C53.4551 23.1571 53.4144 25.9666 53.3737 28.8612C53.333 31.7559 53.3127 34.5228 53.3127 37.162C53.3127 38.3114 53.5772 39.3756 54.1062 40.3547C54.6759 41.3337 55.7136 41.9722 57.2193 42.2702C57.9111 42.3979 58.4198 42.5469 58.7454 42.7172C59.0709 42.8875 59.2337 43.1216 59.2337 43.4196C59.2337 43.675 59.0709 43.8453 58.7454 43.9304C58.4198 44.0581 57.9925 44.1219 57.4635 44.1219C56.3647 44.1219 55.5305 44.0794 54.9608 43.9942C54.4318 43.9517 53.9434 43.9091 53.4958 43.8665C53.0889 43.824 52.4988 43.8027 51.7256 43.8027C50.9931 43.8027 50.4234 43.824 50.0164 43.8665C49.6095 43.9091 49.1415 43.9517 48.6125 43.9942C48.0834 44.0794 47.2696 44.1219 46.1708 44.1219C45.6418 44.1219 45.2145 44.0581 44.8889 43.9304C44.5634 43.8453 44.4005 43.675 44.4005 43.4196C44.4005 43.1216 44.5634 42.8875 44.8889 42.7172C45.2145 42.5469 45.7232 42.3766 46.4149 42.2064C47.5951 41.8658 48.4497 41.2486 48.9787 40.3547C49.5077 39.4182 49.8333 38.2901 49.9554 36.9705C50.1182 35.3529 50.2809 33.2245 50.4437 30.5853C50.6065 27.9035 50.7489 24.9237 50.871 21.6459C50.9931 18.3256 51.0541 14.9202 51.0541 11.4296C51.0541 9.17345 50.4844 7.55586 49.345 6.57679C48.2462 5.59772 46.8016 4.81021 45.011 4.21425C44.8482 4.12912 44.482 3.95884 43.9123 3.70344C43.3832 3.40546 43.1187 3.06491 43.1187 2.6818C43.1187 2.29868 43.3019 2.06456 43.6681 1.97942C44.0344 1.85172 44.3192 1.78787 44.5227 1.78787C45.7028 1.83043 46.6591 1.873 47.3916 1.91557C48.1241 1.91557 48.7752 1.93685 49.345 1.97942C49.9147 2.02199 50.5455 2.06456 51.2373 2.10713C51.9291 2.10713 52.8243 2.10713 53.9231 2.10713C54.2893 2.10713 54.5742 2.21355 54.7777 2.42639C54.9811 2.63923 55.1846 2.89464 55.3881 3.19262C55.5509 3.44803 56.0799 4.17168 56.9752 5.36359C57.9111 6.51294 59.0506 7.98154 60.3935 9.7694C61.7771 11.5147 63.2829 13.4303 64.9107 15.5161C66.5385 17.5594 68.1662 19.6239 69.794 21.7098C71.4218 23.7531 72.9275 25.6686 74.3111 27.4565C75.6947 29.2018 76.8341 30.6491 77.7294 31.7985C78.6654 32.9478 79.2148 33.6289 79.3775 33.8417C79.5403 34.012 79.7641 34.2674 80.049 34.608C80.3745 34.9485 80.6594 35.1188 80.9036 35.1188C81.2698 35.1188 81.4733 34.6718 81.514 33.7779C81.514 33.1819 81.514 32.0539 81.514 30.3937C81.5547 28.691 81.575 26.6477 81.575 24.2639C81.6157 21.8375 81.6361 19.2195 81.6361 16.41C81.6361 13.6005 81.6361 10.7272 81.6361 7.78998C81.5954 6.93862 81.1681 6.17239 80.3542 5.4913C79.5403 4.81021 78.7875 4.40581 78.0957 4.27811C77.4039 4.1504 76.7731 3.98013 76.2034 3.76729C75.6337 3.55444 75.3488 3.29904 75.3488 3.00106C75.3488 2.74565 75.6337 2.57538 76.2034 2.49024C76.7731 2.36254 77.3225 2.29868 77.8515 2.29868C78.2584 2.29868 78.645 2.29868 79.0113 2.29868C79.4182 2.29868 79.8048 2.29868 80.1711 2.29868C80.578 2.29868 80.9646 2.29868 81.3309 2.29868C82.3075 2.29868 83.0807 2.29868 83.6504 2.29868C84.2202 2.25611 84.8306 2.21355 85.4817 2.17098C86.1735 2.12841 87.1298 2.10713 88.3506 2.10713C88.8797 2.10713 89.307 2.17098 89.6325 2.29868C89.9581 2.38382 90.1208 2.55409 90.1208 2.8095C90.1208 3.40546 89.4494 3.83114 88.1065 4.08655C86.6008 4.38452 85.6038 4.76764 85.1154 5.23589C84.6271 5.70414 84.3422 6.47037 84.2609 7.53457C84.2609 7.74741 84.2405 8.57749 84.1998 10.0248C84.1998 11.4721 84.1998 13.3026 84.1998 15.5161C84.1998 17.7297 84.1795 20.1135 84.1388 22.6676C84.1388 25.2217 84.1388 27.7758 84.1388 30.3298C84.1388 32.8414 84.1388 35.0975 84.1388 37.0982C84.1388 38.1198 84.1591 39.0563 84.1998 39.9077C84.2812 40.7165 84.3422 41.4189 84.3829 42.0148C84.4236 42.5682 84.444 42.9939 84.444 43.2919C84.444 43.973 84.3016 44.3986 84.0167 44.5689C83.7725 44.7818 83.4877 44.8882 83.1621 44.8882ZM131.506 44.8882C131.14 44.8882 130.408 44.5689 129.309 43.9304C128.251 43.2919 127.233 42.2702 126.257 40.8655C126.094 40.6526 125.585 40.0141 124.731 38.9499C123.917 37.8857 122.859 36.5661 121.557 34.9911C120.295 33.3735 118.911 31.6282 117.406 29.7552C115.9 27.8822 114.394 26.0092 112.889 24.1362C111.383 22.2632 109.979 20.5392 108.677 18.9641C107.375 17.3465 106.276 16.0056 105.381 14.9414C104.526 13.8347 103.997 13.1536 103.794 12.8982C103.509 12.5151 103.264 12.2596 103.061 12.1319C102.858 11.9617 102.674 11.8765 102.512 11.8765C102.308 11.8765 102.166 12.0468 102.084 12.3873C102.003 12.6853 101.962 12.962 101.962 13.2174C101.922 15.3033 101.881 17.7084 101.84 20.4327C101.799 23.1571 101.759 25.9666 101.718 28.8612C101.677 31.7559 101.657 34.5228 101.657 37.162C101.657 38.3114 101.922 39.3756 102.451 40.3547C103.02 41.3337 104.058 41.9722 105.564 42.2702C106.256 42.3979 106.764 42.5469 107.09 42.7172C107.415 42.8875 107.578 43.1216 107.578 43.4196C107.578 43.675 107.415 43.8453 107.09 43.9304C106.764 44.0581 106.337 44.1219 105.808 44.1219C104.709 44.1219 103.875 44.0794 103.305 43.9942C102.776 43.9517 102.288 43.9091 101.84 43.8665C101.433 43.824 100.843 43.8027 100.07 43.8027C99.3375 43.8027 98.7678 43.824 98.3608 43.8665C97.9539 43.9091 97.4859 43.9517 96.9569 43.9942C96.4278 44.0794 95.6139 44.1219 94.5152 44.1219C93.9862 44.1219 93.5589 44.0581 93.2333 43.9304C92.9078 43.8453 92.745 43.675 92.745 43.4196C92.745 43.1216 92.9078 42.8875 93.2333 42.7172C93.5589 42.5469 94.0676 42.3766 94.7594 42.2064C95.9395 41.8658 96.7941 41.2486 97.3231 40.3547C97.8521 39.4182 98.1777 38.2901 98.2998 36.9705C98.4626 35.3529 98.6253 33.2245 98.7881 30.5853C98.9509 27.9035 99.0933 24.9237 99.2154 21.6459C99.3375 18.3256 99.3985 14.9202 99.3985 11.4296C99.3985 9.17345 98.8288 7.55586 97.6894 6.57679C96.5906 5.59772 95.146 4.81021 93.3554 4.21425C93.1926 4.12912 92.8264 3.95884 92.2567 3.70344C91.7276 3.40546 91.4631 3.06491 91.4631 2.6818C91.4631 2.29868 91.6463 2.06456 92.0125 1.97942C92.3788 1.85172 92.6636 1.78787 92.8671 1.78787C94.0472 1.83043 95.0035 1.873 95.736 1.91557C96.4685 1.91557 97.1196 1.93685 97.6894 1.97942C98.2591 2.02199 98.8898 2.06456 99.5816 2.10713C100.273 2.10713 101.169 2.10713 102.267 2.10713C102.634 2.10713 102.919 2.21355 103.122 2.42639C103.326 2.63923 103.529 2.89464 103.732 3.19262C103.895 3.44803 104.424 4.17168 105.32 5.36359C106.256 6.51294 107.395 7.98154 108.738 9.7694C110.121 11.5147 111.627 13.4303 113.255 15.5161C114.883 17.5594 116.511 19.6239 118.138 21.7098C119.766 23.7531 121.272 25.6686 122.655 27.4565C124.039 29.2018 125.178 30.6491 126.074 31.7985C127.01 32.9478 127.559 33.6289 127.722 33.8417C127.885 34.012 128.108 34.2674 128.393 34.608C128.719 34.9485 129.004 35.1188 129.248 35.1188C129.614 35.1188 129.818 34.6718 129.858 33.7779C129.858 33.1819 129.858 32.0539 129.858 30.3937C129.899 28.691 129.919 26.6477 129.919 24.2639C129.96 21.8375 129.98 19.2195 129.98 16.41C129.98 13.6005 129.98 10.7272 129.98 7.78998C129.94 6.93862 129.512 6.17239 128.698 5.4913C127.885 4.81021 127.132 4.40581 126.44 4.27811C125.748 4.1504 125.117 3.98013 124.548 3.76729C123.978 3.55444 123.693 3.29904 123.693 3.00106C123.693 2.74565 123.978 2.57538 124.548 2.49024C125.117 2.36254 125.667 2.29868 126.196 2.29868C126.603 2.29868 126.989 2.29868 127.356 2.29868C127.762 2.29868 128.149 2.29868 128.515 2.29868C128.922 2.29868 129.309 2.29868 129.675 2.29868C130.652 2.29868 131.425 2.29868 131.995 2.29868C132.564 2.25611 133.175 2.21355 133.826 2.17098C134.518 2.12841 135.474 2.10713 136.695 2.10713C137.224 2.10713 137.651 2.17098 137.977 2.29868C138.302 2.38382 138.465 2.55409 138.465 2.8095C138.465 3.40546 137.794 3.83114 136.451 4.08655C134.945 4.38452 133.948 4.76764 133.46 5.23589C132.971 5.70414 132.687 6.47037 132.605 7.53457C132.605 7.74741 132.585 8.57749 132.544 10.0248C132.544 11.4721 132.544 13.3026 132.544 15.5161C132.544 17.7297 132.524 20.1135 132.483 22.6676C132.483 25.2217 132.483 27.7758 132.483 30.3298C132.483 32.8414 132.483 35.0975 132.483 37.0982C132.483 38.1198 132.503 39.0563 132.544 39.9077C132.625 40.7165 132.687 41.4189 132.727 42.0148C132.768 42.5682 132.788 42.9939 132.788 43.2919C132.788 43.973 132.646 44.3986 132.361 44.5689C132.117 44.7818 131.832 44.8882 131.506 44.8882ZM140.723 44.1219C140.194 44.1219 139.767 44.0368 139.441 43.8665C139.116 43.7388 138.953 43.5473 138.953 43.2919C138.953 42.9939 139.116 42.7385 139.441 42.5256C139.807 42.2702 140.316 42.0361 140.967 41.8233C142.025 41.4827 143.002 40.9719 143.897 40.2908C144.792 39.6097 145.566 38.4817 146.217 36.9066C147.356 34.1823 148.394 31.6282 149.33 29.2444C150.307 26.8605 151.222 24.5193 152.077 22.2206C152.931 19.9219 153.806 17.5381 154.702 15.0691C155.637 12.5576 156.614 9.83326 157.632 6.89605C157.835 6.3001 158.018 5.70414 158.181 5.10819C158.344 4.51223 158.445 3.87371 158.486 3.19262C158.852 3.06491 159.219 2.93721 159.585 2.8095C159.951 2.6818 160.317 2.49024 160.684 2.23483C161.05 1.97942 161.294 1.59631 161.416 1.08549C161.579 0.574672 161.721 0.234126 161.843 0.0638527C161.884 0.0212845 161.925 0 161.965 0C162.047 0 162.108 0.0425691 162.149 0.127705C162.23 0.297978 162.291 0.51082 162.332 0.766229C162.413 1.02164 162.494 1.27705 162.576 1.53246C163.553 4.76764 164.57 8.06667 165.628 11.4296C166.686 14.7925 167.703 18.0489 168.68 21.199C169.697 24.3064 170.613 27.1159 171.427 29.6275C172.281 32.0964 172.953 34.0971 173.441 35.6296C174.011 37.3323 174.621 38.6094 175.273 39.4607C175.924 40.3121 176.595 40.908 177.287 41.2486C178.019 41.5891 178.793 41.8445 179.606 42.0148C180.298 42.1425 180.807 42.3554 181.132 42.6533C181.458 42.9088 181.621 43.1854 181.621 43.4834C181.621 43.7388 181.458 43.9091 181.132 43.9942C180.807 44.0794 180.38 44.1219 179.851 44.1219C179.281 44.1219 178.508 44.0794 177.531 43.9942C176.554 43.9517 175.517 43.8878 174.418 43.8027C173.319 43.7601 172.302 43.7388 171.366 43.7388C170.593 43.7388 169.799 43.7388 168.985 43.7388C168.171 43.7388 167.419 43.7601 166.727 43.8027C166.035 43.8027 165.445 43.8027 164.956 43.8027C164.427 43.8027 164 43.7388 163.675 43.6111C163.349 43.4834 163.186 43.2919 163.186 43.0365C163.186 42.7385 163.39 42.4831 163.797 42.2702C164.204 42.0574 164.672 41.9084 165.201 41.8233C166.544 41.6104 167.5 41.2486 168.07 40.7378C168.639 40.227 168.924 39.631 168.924 38.9499C168.924 38.3114 168.782 37.3962 168.497 36.2043C168.253 34.9698 167.948 33.6715 167.581 32.3093C167.215 30.9045 166.869 29.67 166.544 28.6058C166.462 28.2653 166.299 28.0737 166.055 28.0312C165.852 27.946 165.465 27.9035 164.895 27.9035H153.359C153.196 27.9035 153.013 27.9886 152.809 28.1589C152.646 28.2866 152.484 28.5845 152.321 29.0528C152.199 29.4785 151.995 30.1596 151.71 31.0961C151.426 31.99 151.141 32.9478 150.856 33.9694C150.571 34.9911 150.327 35.9063 150.123 36.7151C149.92 37.5239 149.818 38.0347 149.818 38.2475C149.818 39.184 150.164 39.9715 150.856 40.6101C151.548 41.206 152.382 41.6317 153.359 41.8871C154.702 42.2702 155.373 42.6959 155.373 43.1642C155.373 43.4196 155.21 43.6111 154.885 43.7388C154.559 43.824 154.132 43.8665 153.603 43.8665C153.074 43.8665 152.301 43.8452 151.283 43.8027C150.266 43.7601 149.187 43.7388 148.048 43.7388C146.705 43.7388 145.403 43.8027 144.141 43.9304C142.88 44.0581 141.74 44.1219 140.723 44.1219ZM155.007 25.7963H164.468C165.038 25.7963 165.323 25.6899 165.323 25.4771C165.323 25.3919 165.302 25.3068 165.262 25.2217C165.262 25.094 165.241 24.9663 165.201 24.8385L160.439 9.25858C160.195 8.49236 160.012 8.10924 159.89 8.10924C159.809 8.10924 159.646 8.47107 159.402 9.19473L153.847 24.8385C153.766 25.094 153.725 25.2642 153.725 25.3494C153.725 25.5622 153.827 25.6899 154.03 25.7325C154.274 25.775 154.6 25.7963 155.007 25.7963Z" fill="#DF9393"/>
<path d="M0.488331 59.8057C0.422203 59.8057 0.368791 59.7977 0.328097 59.7817C0.287403 59.7711 0.267056 59.7498 0.267056 59.7179C0.267056 59.6806 0.287403 59.6513 0.328097 59.6301C0.368791 59.6088 0.432376 59.5902 0.518852 59.5742C0.646022 59.5476 0.750301 59.4837 0.83169 59.3826C0.913078 59.2815 0.96649 59.1379 0.991924 58.9516C1.05297 58.4727 1.10638 58.0178 1.15216 57.5868C1.19794 57.1505 1.23355 56.7594 1.25898 56.4135C1.2895 56.0623 1.30476 55.775 1.30476 55.5515C1.30476 55.5089 1.30476 55.4637 1.30476 55.4158C1.30476 55.3679 1.30222 55.3254 1.29713 55.2881C1.29204 55.2455 1.28441 55.203 1.27424 55.1604C1.26407 55.1125 1.23355 55.0673 1.18268 55.0247C1.09112 54.9449 1.0021 54.8917 0.915622 54.8651C0.829146 54.8332 0.72741 54.8066 0.610414 54.7853C0.559546 54.7746 0.518852 54.756 0.488331 54.7294C0.45781 54.6975 0.44255 54.6629 0.44255 54.6256C0.44255 54.5831 0.46544 54.5591 0.511222 54.5538C0.56209 54.5432 0.625675 54.5378 0.701976 54.5378C0.752844 54.5378 0.829146 54.5405 0.930882 54.5458C1.03771 54.5511 1.15216 54.5591 1.27424 54.5698C1.39632 54.5804 1.50823 54.5884 1.60997 54.5937C1.71679 54.599 1.79564 54.6017 1.84651 54.6017C1.88211 54.6017 1.91263 54.6123 1.93807 54.6336C1.9635 54.6549 1.98131 54.6868 1.99148 54.7294C2.01691 54.8252 2.04235 54.9263 2.06778 55.0327C2.09321 55.1391 2.12374 55.2429 2.15934 55.344L3.36491 58.5446C3.38017 58.5818 3.40815 58.6058 3.44885 58.6164C3.48954 58.6217 3.52006 58.6058 3.54041 58.5685L5.04356 55.2961C5.06899 55.2056 5.09442 55.1045 5.11986 54.9928C5.14529 54.881 5.16564 54.7826 5.1809 54.6975C5.19616 54.6283 5.22159 54.5937 5.2572 54.5937H5.53189C5.68449 54.5937 5.84473 54.5831 6.01259 54.5618C6.18554 54.5405 6.31526 54.5299 6.40173 54.5299C6.42717 54.5299 6.46023 54.5352 6.50092 54.5458C6.54162 54.5511 6.56196 54.5724 6.56196 54.6097C6.56196 54.6469 6.5467 54.6762 6.51618 54.6975C6.49075 54.7188 6.43988 54.7454 6.36358 54.7773C6.29745 54.8039 6.22369 54.8332 6.1423 54.8651C6.06092 54.897 5.98461 54.9289 5.9134 54.9609C5.86253 54.9822 5.81929 55.0194 5.78369 55.0726C5.74808 55.1205 5.73027 55.1737 5.73027 55.2322C5.73027 55.6047 5.73536 55.9559 5.74553 56.2858C5.76079 56.6104 5.77606 56.9243 5.79132 57.2276C5.80658 57.5256 5.82438 57.8209 5.84473 58.1136C5.86507 58.4062 5.88288 58.7042 5.89814 59.0075C5.90831 59.1725 5.95918 59.3002 6.05074 59.3906C6.1423 59.4758 6.28219 59.5369 6.4704 59.5742C6.55688 59.5902 6.62046 59.6088 6.66116 59.6301C6.70185 59.6513 6.7222 59.6806 6.7222 59.7179C6.7222 59.7498 6.70185 59.7711 6.66116 59.7817C6.62046 59.7977 6.56705 59.8057 6.50092 59.8057C6.36358 59.8057 6.24913 59.8003 6.15756 59.7897C6.07109 59.7844 5.98716 59.7791 5.90577 59.7737C5.82438 59.7684 5.72519 59.7658 5.60819 59.7658C5.50645 59.7658 5.41998 59.7684 5.34876 59.7737C5.28264 59.7791 5.20888 59.7844 5.12749 59.7897C5.05119 59.8003 4.94436 59.8057 4.80702 59.8057C4.74089 59.8057 4.68748 59.7977 4.64679 59.7817C4.60609 59.7711 4.58574 59.7498 4.58574 59.7179C4.58574 59.6806 4.60609 59.6513 4.64679 59.6301C4.68748 59.6035 4.75107 59.5848 4.83754 59.5742C4.98506 59.5529 5.08679 59.4997 5.14275 59.4146C5.1987 59.3241 5.22668 59.1858 5.22668 58.9995C5.22668 58.6164 5.22159 58.2705 5.21142 57.9619C5.20633 57.6533 5.19616 57.35 5.1809 57.052C5.16564 56.7487 5.15038 56.4188 5.13512 56.0623C5.13003 56.0038 5.11477 55.9772 5.08934 55.9825C5.0639 55.9825 5.03847 56.0091 5.01304 56.0623L3.25809 59.8057C3.24792 59.8323 3.22503 59.8456 3.18942 59.8456C3.15381 59.8509 3.13092 59.8349 3.12075 59.7977C2.92236 59.1751 2.70872 58.5632 2.47981 57.9619C2.25599 57.3553 2.00165 56.7035 1.71679 56.0064C1.70662 55.9798 1.68881 55.9665 1.66338 55.9665C1.63795 55.9665 1.62269 55.9798 1.6176 56.0064C1.57182 56.3789 1.52858 56.7221 1.48789 57.0361C1.45228 57.3447 1.4243 57.6506 1.40395 57.9539C1.38361 58.2572 1.37343 58.5898 1.37343 58.9516C1.37343 59.0953 1.41667 59.2283 1.50315 59.3507C1.58962 59.4678 1.71171 59.5423 1.8694 59.5742C1.95587 59.5902 2.01946 59.6088 2.06015 59.6301C2.10084 59.6513 2.12119 59.6806 2.12119 59.7179C2.12119 59.7498 2.10084 59.7711 2.06015 59.7817C2.01946 59.7977 1.96605 59.8057 1.89992 59.8057C1.76257 59.8057 1.65829 59.8003 1.58708 59.7897C1.52095 59.7844 1.45991 59.7791 1.40395 59.7737C1.35309 59.7684 1.27933 59.7658 1.18268 59.7658C1.09112 59.7658 1.0199 59.7684 0.969033 59.7737C0.918165 59.7791 0.859667 59.7844 0.793539 59.7897C0.72741 59.8003 0.625675 59.8057 0.488331 59.8057ZM7.2057 59.8057C7.13957 59.8057 7.08616 59.795 7.04546 59.7737C7.00477 59.7578 6.98442 59.7338 6.98442 59.7019C6.98442 59.6647 7.00477 59.6327 7.04546 59.6061C7.09125 59.5742 7.15483 59.5449 7.23622 59.5183C7.36848 59.4758 7.49056 59.4119 7.60247 59.3268C7.71438 59.2416 7.81103 59.1006 7.89242 58.9037C8.03485 58.5632 8.16456 58.2439 8.28156 57.946C8.40364 57.648 8.51809 57.3553 8.62492 57.068C8.73174 56.7807 8.8411 56.4827 8.95301 56.1741C9.07001 55.8601 9.19209 55.5196 9.31926 55.1524C9.3447 55.0779 9.36759 55.0034 9.38793 54.9289C9.40828 54.8544 9.421 54.7746 9.42608 54.6895C9.47187 54.6735 9.51765 54.6576 9.56343 54.6416C9.60921 54.6256 9.65499 54.6017 9.70077 54.5698C9.74655 54.5378 9.77707 54.49 9.79233 54.4261C9.81268 54.3623 9.83049 54.3197 9.84575 54.2984C9.85083 54.2931 9.85592 54.2904 9.86101 54.2904C9.87118 54.2904 9.87881 54.2957 9.8839 54.3064C9.89407 54.3277 9.9017 54.3543 9.90679 54.3862C9.91696 54.4181 9.92713 54.45 9.93731 54.482C10.0594 54.8864 10.1866 55.2988 10.3188 55.7191C10.4511 56.1395 10.5782 56.5465 10.7003 56.9403C10.8275 57.3287 10.9419 57.6799 11.0437 57.9939C11.1505 58.3025 11.2344 58.5526 11.2955 58.7441C11.3667 58.957 11.443 59.1166 11.5244 59.223C11.6058 59.3294 11.6897 59.4039 11.7762 59.4465C11.8677 59.4891 11.9644 59.521 12.0661 59.5423C12.1526 59.5582 12.2162 59.5848 12.2569 59.6221C12.2976 59.654 12.3179 59.6886 12.3179 59.7258C12.3179 59.7578 12.2976 59.7791 12.2569 59.7897C12.2162 59.8003 12.1628 59.8057 12.0967 59.8057C12.0254 59.8057 11.9288 59.8003 11.8067 59.7897C11.6846 59.7844 11.5549 59.7764 11.4176 59.7658C11.2802 59.7604 11.1531 59.7578 11.0361 59.7578C10.9394 59.7578 10.8402 59.7578 10.7385 59.7578C10.6367 59.7578 10.5426 59.7604 10.4562 59.7658C10.3697 59.7658 10.2959 59.7658 10.2349 59.7658C10.1688 59.7658 10.1153 59.7578 10.0747 59.7418C10.034 59.7258 10.0136 59.7019 10.0136 59.67C10.0136 59.6327 10.039 59.6008 10.0899 59.5742C10.1408 59.5476 10.1993 59.529 10.2654 59.5183C10.4333 59.4917 10.5528 59.4465 10.624 59.3826C10.6952 59.3188 10.7308 59.2443 10.7308 59.1592C10.7308 59.0793 10.713 58.9649 10.6774 58.8159C10.6469 58.6616 10.6088 58.4993 10.563 58.3291C10.5172 58.1535 10.474 57.9992 10.4333 57.8661C10.4231 57.8236 10.4027 57.7996 10.3722 57.7943C10.3468 57.7837 10.2985 57.7784 10.2273 57.7784H8.78515C8.7648 57.7784 8.74191 57.789 8.71648 57.8103C8.69613 57.8262 8.67578 57.8635 8.65544 57.922C8.64017 57.9752 8.61474 58.0604 8.57913 58.1774C8.54353 58.2892 8.50792 58.4089 8.47231 58.5366C8.4367 58.6643 8.40618 58.7787 8.38075 58.8798C8.35532 58.9809 8.3426 59.0448 8.3426 59.0714C8.3426 59.1884 8.38584 59.2869 8.47231 59.3667C8.55879 59.4412 8.66307 59.4944 8.78515 59.5263C8.95301 59.5742 9.03695 59.6274 9.03695 59.6859C9.03695 59.7179 9.0166 59.7418 8.9759 59.7578C8.93521 59.7684 8.8818 59.7737 8.81567 59.7737C8.74954 59.7737 8.65289 59.7711 8.52572 59.7658C8.39855 59.7604 8.26375 59.7578 8.12132 59.7578C7.95346 59.7578 7.79068 59.7658 7.63299 59.7817C7.4753 59.7977 7.33287 59.8057 7.2057 59.8057ZM8.99116 57.515H10.1738C10.2451 57.515 10.2807 57.5017 10.2807 57.4751C10.2807 57.4644 10.2781 57.4538 10.273 57.4431C10.273 57.4272 10.2705 57.4112 10.2654 57.3952L9.67025 55.4477C9.63973 55.352 9.61684 55.3041 9.60158 55.3041C9.59141 55.3041 9.57106 55.3493 9.54054 55.4398L8.84619 57.3952C8.83602 57.4272 8.83093 57.4484 8.83093 57.4591C8.83093 57.4857 8.84365 57.5017 8.86908 57.507C8.8996 57.5123 8.9403 57.515 8.99116 57.515ZM17.7286 61.7452C17.3623 61.7452 17.0495 61.6893 16.79 61.5776C16.5357 61.4711 16.2865 61.3275 16.0423 61.1466C15.8439 60.9976 15.6557 60.8539 15.4777 60.7156C15.2996 60.5825 15.086 60.4096 14.8367 60.1968C14.6587 60.0424 14.4934 59.9307 14.3408 59.8615C14.1932 59.7977 14.0661 59.7391 13.9592 59.6859C13.7507 59.5848 13.5523 59.4625 13.3641 59.3188C13.1759 59.1751 13.008 59.0048 12.8605 58.808C12.7181 58.6111 12.6036 58.3849 12.5171 58.1295C12.4358 57.8688 12.3951 57.5762 12.3951 57.2516C12.3951 56.8897 12.451 56.5439 12.5629 56.214C12.6748 55.8787 12.8402 55.5808 13.0589 55.32C13.2776 55.0593 13.5498 54.8518 13.8753 54.6975C14.2009 54.5432 14.5747 54.466 14.997 54.466C15.3327 54.466 15.6531 54.5299 15.9584 54.6576C16.2636 54.78 16.5332 54.9582 16.7672 55.1923C17.0012 55.4211 17.1868 55.6978 17.3242 56.0224C17.4615 56.3417 17.5302 56.6982 17.5302 57.0919C17.5302 57.4963 17.459 57.8821 17.3165 58.2493C17.1792 58.6164 16.9732 58.9357 16.6985 59.207C16.4238 59.4784 16.083 59.67 15.676 59.7817C15.6353 59.7924 15.615 59.811 15.615 59.8376C15.615 59.8642 15.6252 59.8881 15.6455 59.9094C15.793 60.0744 15.9431 60.226 16.0957 60.3644C16.2534 60.508 16.4263 60.6517 16.6146 60.7954C16.8689 60.9869 17.1054 61.1173 17.3242 61.1865C17.548 61.261 17.8074 61.2982 18.1024 61.2982C18.194 61.2982 18.2779 61.2929 18.3542 61.2822C18.4356 61.2716 18.4941 61.2583 18.5297 61.2423C18.5552 61.2317 18.5806 61.2237 18.606 61.2184C18.6315 61.2131 18.6544 61.2104 18.6747 61.2104C18.7307 61.2104 18.7586 61.2317 18.7586 61.2743C18.7586 61.3222 18.7485 61.3594 18.7281 61.386C18.7129 61.4126 18.6772 61.4445 18.6213 61.4818C18.4789 61.5722 18.3288 61.6388 18.1711 61.6813C18.0185 61.7239 17.871 61.7452 17.7286 61.7452ZM15.0427 59.5582C15.6277 59.5582 16.0652 59.3693 16.3551 58.9915C16.6502 58.6137 16.7977 58.1109 16.7977 57.483C16.7977 57.1159 16.757 56.77 16.6756 56.4454C16.5942 56.1209 16.4721 55.8362 16.3093 55.5914C16.1517 55.3413 15.9533 55.1471 15.7142 55.0088C15.4751 54.8704 15.1953 54.8012 14.8749 54.8012C14.3001 54.8012 13.8651 54.9875 13.5701 55.3599C13.2751 55.7324 13.1276 56.2299 13.1276 56.8525C13.1276 57.225 13.1657 57.5735 13.242 57.8981C13.3234 58.2227 13.4429 58.51 13.6006 58.7601C13.7634 59.0102 13.9643 59.207 14.2034 59.3507C14.4425 59.4891 14.7223 59.5582 15.0427 59.5582ZM20.7097 59.8775C20.257 59.8775 19.878 59.795 19.5728 59.6301C19.2676 59.4598 19.0387 59.223 18.8861 58.9197C18.7335 58.6111 18.6572 58.2546 18.6572 57.8502V55.3998C18.6572 55.2083 18.619 55.0699 18.5427 54.9848C18.4715 54.8944 18.3926 54.8385 18.3062 54.8172C18.1383 54.7693 18.0544 54.7108 18.0544 54.6416C18.0544 54.6097 18.0747 54.5884 18.1154 54.5778C18.1561 54.5618 18.2095 54.5538 18.2756 54.5538C18.3926 54.5538 18.5071 54.5591 18.619 54.5698C18.736 54.5751 18.8657 54.5778 19.0081 54.5778C19.1251 54.5778 19.2345 54.5751 19.3362 54.5698C19.4431 54.5645 19.5372 54.5618 19.6186 54.5618C19.6847 54.5618 19.7381 54.5698 19.7788 54.5857C19.8195 54.5964 19.8398 54.6177 19.8398 54.6496C19.8398 54.6868 19.8195 54.7161 19.7788 54.7374C19.7381 54.7587 19.6745 54.7826 19.588 54.8092C19.527 54.8305 19.4583 54.8917 19.382 54.9928C19.3057 55.0939 19.2676 55.2243 19.2676 55.3839V57.6267C19.2676 58.0524 19.3362 58.4036 19.4736 58.6803C19.6109 58.9516 19.7991 59.1538 20.0382 59.2869C20.2824 59.4146 20.5596 59.4784 20.8699 59.4784C21.3939 59.4784 21.7779 59.2895 22.0221 58.9117C22.2662 58.5286 22.3883 58.0258 22.3883 57.4032C22.3883 57.2862 22.3858 57.1318 22.3807 56.9403C22.3807 56.7487 22.3781 56.5439 22.3731 56.3257C22.368 56.1022 22.3629 55.8894 22.3578 55.6872C22.3578 55.5488 22.3451 55.4185 22.3196 55.2961C22.2993 55.1737 22.2662 55.0699 22.2205 54.9848C22.1747 54.8944 22.1162 54.8385 22.045 54.8172C21.9941 54.8012 21.9381 54.7799 21.8771 54.7533C21.8211 54.7267 21.7932 54.6948 21.7932 54.6576C21.7932 54.6256 21.8135 54.6044 21.8542 54.5937C21.8949 54.5778 21.9483 54.5698 22.0144 54.5698C22.1314 54.5698 22.2281 54.5724 22.3044 54.5778C22.3807 54.5778 22.4748 54.5778 22.5867 54.5778C22.6681 54.5778 22.7444 54.5778 22.8156 54.5778C22.8868 54.5724 22.9555 54.5671 23.0216 54.5618C23.0878 54.5565 23.1488 54.5538 23.2048 54.5538C23.2709 54.5538 23.3243 54.5618 23.365 54.5778C23.4057 54.5884 23.426 54.6097 23.426 54.6416C23.426 54.7108 23.3421 54.764 23.1742 54.8012C23.042 54.8278 22.9479 54.8944 22.8919 55.0008C22.836 55.1072 22.8029 55.2402 22.7927 55.3998C22.7673 55.8575 22.7495 56.2752 22.7393 56.653C22.7342 57.0307 22.7266 57.4032 22.7164 57.7704C22.7062 58.1801 22.6121 58.5446 22.4341 58.8638C22.2561 59.1831 22.017 59.4332 21.7169 59.6141C21.4218 59.7897 21.0861 59.8775 20.7097 59.8775ZM23.8707 59.8057C23.8045 59.8057 23.7511 59.7977 23.7104 59.7817C23.6697 59.7711 23.6494 59.7498 23.6494 59.7179C23.6494 59.654 23.7333 59.6061 23.9012 59.5742C24.0945 59.5369 24.242 59.4758 24.3437 59.3906C24.4455 59.3055 24.4964 59.1698 24.4964 58.9836V55.3759C24.4964 55.1897 24.4582 55.0566 24.3819 54.9768C24.3107 54.897 24.1784 54.8385 23.9851 54.8012C23.8173 54.7693 23.7333 54.7161 23.7333 54.6416C23.7333 54.6097 23.7537 54.5884 23.7944 54.5778C23.8351 54.5618 23.8885 54.5538 23.9546 54.5538C24.092 54.5538 24.2039 54.5565 24.2903 54.5618C24.3819 54.5671 24.4684 54.5724 24.5498 54.5778C24.6312 54.5778 24.7303 54.5778 24.8473 54.5778C24.9592 54.5778 25.0508 54.5778 25.122 54.5778C25.1932 54.5724 25.2695 54.5671 25.3509 54.5618C25.4323 54.5565 25.5417 54.5538 25.679 54.5538C25.7452 54.5538 25.7986 54.5618 25.8393 54.5778C25.88 54.5884 25.9003 54.6097 25.9003 54.6416C25.9003 54.6789 25.88 54.7108 25.8393 54.7374C25.7986 54.764 25.735 54.7853 25.6485 54.8012C25.4603 54.8385 25.323 54.897 25.2365 54.9768C25.15 55.0566 25.1068 55.1897 25.1068 55.3759V58.9836C25.1068 59.1698 25.1602 59.3055 25.267 59.3906C25.3738 59.4758 25.5213 59.5369 25.7096 59.5742C25.796 59.5902 25.8596 59.6088 25.9003 59.6301C25.941 59.6513 25.9613 59.6806 25.9613 59.7179C25.9613 59.7498 25.941 59.7711 25.9003 59.7817C25.8596 59.7977 25.8062 59.8057 25.7401 59.8057C25.6027 59.8057 25.4883 59.8003 25.3967 59.7897C25.3102 59.7844 25.2263 59.7791 25.1449 59.7737C25.0635 59.7684 24.9643 59.7658 24.8473 59.7658C24.7202 59.7658 24.6083 59.7684 24.5116 59.7737C24.42 59.7791 24.3234 59.7844 24.2217 59.7897C24.125 59.8003 24.008 59.8057 23.8707 59.8057ZM26.3036 59.8057C26.2374 59.8057 26.184 59.795 26.1433 59.7737C26.1026 59.7578 26.0823 59.7338 26.0823 59.7019C26.0823 59.6647 26.1026 59.6327 26.1433 59.6061C26.1891 59.5742 26.2527 59.5449 26.3341 59.5183C26.4663 59.4758 26.5884 59.4119 26.7003 59.3268C26.8122 59.2416 26.9089 59.1006 26.9903 58.9037C27.1327 58.5632 27.2624 58.2439 27.3794 57.946C27.5015 57.648 27.616 57.3553 27.7228 57.068C27.8296 56.7807 27.939 56.4827 28.0509 56.1741C28.1679 55.8601 28.29 55.5196 28.4171 55.1524C28.4426 55.0779 28.4655 55.0034 28.4858 54.9289C28.5061 54.8544 28.5189 54.7746 28.5239 54.6895C28.5697 54.6735 28.6155 54.6576 28.6613 54.6416C28.7071 54.6256 28.7529 54.6017 28.7986 54.5698C28.8444 54.5378 28.8749 54.49 28.8902 54.4261C28.9105 54.3623 28.9283 54.3197 28.9436 54.2984C28.9487 54.2931 28.9538 54.2904 28.9589 54.2904C28.969 54.2904 28.9767 54.2957 28.9818 54.3064C28.9919 54.3277 28.9996 54.3543 29.0047 54.3862C29.0148 54.4181 29.025 54.45 29.0352 54.482C29.1573 54.8864 29.2844 55.2988 29.4167 55.7191C29.5489 56.1395 29.6761 56.5465 29.7982 56.9403C29.9254 57.3287 30.0398 57.6799 30.1416 57.9939C30.2484 58.3025 30.3323 58.5526 30.3933 58.7441C30.4646 58.957 30.5409 59.1166 30.6223 59.223C30.7036 59.3294 30.7876 59.4039 30.8741 59.4465C30.9656 59.4891 31.0623 59.521 31.164 59.5423C31.2505 59.5582 31.3141 59.5848 31.3547 59.6221C31.3954 59.654 31.4158 59.6886 31.4158 59.7258C31.4158 59.7578 31.3954 59.7791 31.3547 59.7897C31.3141 59.8003 31.2606 59.8057 31.1945 59.8057C31.1233 59.8057 31.0267 59.8003 30.9046 59.7897C30.7825 59.7844 30.6528 59.7764 30.5154 59.7658C30.3781 59.7604 30.2509 59.7578 30.1339 59.7578C30.0373 59.7578 29.9381 59.7578 29.8363 59.7578C29.7346 59.7578 29.6405 59.7604 29.554 59.7658C29.4676 59.7658 29.3938 59.7658 29.3328 59.7658C29.2666 59.7658 29.2132 59.7578 29.1725 59.7418C29.1318 59.7258 29.1115 59.7019 29.1115 59.67C29.1115 59.6327 29.1369 59.6008 29.1878 59.5742C29.2386 59.5476 29.2971 59.529 29.3633 59.5183C29.5311 59.4917 29.6507 59.4465 29.7219 59.3826C29.7931 59.3188 29.8287 59.2443 29.8287 59.1592C29.8287 59.0793 29.8109 58.9649 29.7753 58.8159C29.7448 58.6616 29.7066 58.4993 29.6608 58.3291C29.6151 58.1535 29.5718 57.9992 29.5311 57.8661C29.521 57.8236 29.5006 57.7996 29.4701 57.7943C29.4447 57.7837 29.3963 57.7784 29.3251 57.7784H27.883C27.8627 57.7784 27.8398 57.789 27.8143 57.8103C27.794 57.8262 27.7736 57.8635 27.7533 57.922C27.738 57.9752 27.7126 58.0604 27.677 58.1774C27.6414 58.2892 27.6058 58.4089 27.5702 58.5366C27.5346 58.6643 27.504 58.7787 27.4786 58.8798C27.4532 58.9809 27.4405 59.0448 27.4405 59.0714C27.4405 59.1884 27.4837 59.2869 27.5702 59.3667C27.6566 59.4412 27.7609 59.4944 27.883 59.5263C28.0509 59.5742 28.1348 59.6274 28.1348 59.6859C28.1348 59.7179 28.1145 59.7418 28.0738 59.7578C28.0331 59.7684 27.9797 59.7737 27.9135 59.7737C27.8474 59.7737 27.7508 59.7711 27.6236 59.7658C27.4964 59.7604 27.3616 59.7578 27.2192 59.7578C27.0513 59.7578 26.8885 59.7658 26.7309 59.7817C26.5732 59.7977 26.4307 59.8057 26.3036 59.8057ZM28.089 57.515H29.2717C29.3429 57.515 29.3785 57.5017 29.3785 57.4751C29.3785 57.4644 29.376 57.4538 29.3709 57.4431C29.3709 57.4272 29.3684 57.4112 29.3633 57.3952L28.7681 55.4477C28.7376 55.352 28.7147 55.3041 28.6994 55.3041C28.6893 55.3041 28.6689 55.3493 28.6384 55.4398L27.9441 57.3952C27.9339 57.4272 27.9288 57.4484 27.9288 57.4591C27.9288 57.4857 27.9415 57.5017 27.9669 57.507C27.9975 57.5123 28.0382 57.515 28.089 57.515ZM34.1406 59.8775C33.7896 59.8775 33.4539 59.8136 33.1334 59.6859C32.818 59.5529 32.5357 59.3693 32.2865 59.1352C32.0423 58.9011 31.849 58.6271 31.7066 58.3131C31.5641 57.9939 31.4929 57.6506 31.4929 57.2835C31.4929 56.8897 31.5667 56.5226 31.7142 56.182C31.8617 55.8415 32.0652 55.5435 32.3246 55.2881C32.584 55.0327 32.8816 54.8332 33.2173 54.6895C33.5582 54.5458 33.9193 54.474 34.3008 54.474C34.3873 54.474 34.5043 54.4846 34.6518 54.5059C34.8044 54.5219 34.9596 54.5432 35.1173 54.5698C35.28 54.5964 35.425 54.6256 35.5522 54.6576C35.6844 54.6842 35.776 54.7108 35.8269 54.7374C35.8523 54.748 35.8676 54.7613 35.8727 54.7773C35.8828 54.7879 35.8905 54.8066 35.8955 54.8332C35.9159 54.9875 35.9337 55.1418 35.949 55.2961C35.9642 55.4451 35.9718 55.5728 35.9718 55.6792C35.9718 55.7165 35.9591 55.7537 35.9337 55.7909C35.9133 55.8229 35.8879 55.8388 35.8574 55.8388C35.8065 55.8388 35.7684 55.8149 35.7429 55.767C35.7175 55.7191 35.6972 55.6712 35.6819 55.6233C35.6514 55.5382 35.6183 55.4664 35.5827 55.4078C35.5522 55.344 35.5064 55.2748 35.4454 55.2003C35.4148 55.1577 35.3487 55.1045 35.247 55.0407C35.1503 54.9715 35.0181 54.9103 34.8502 54.8571C34.6823 54.8039 34.4763 54.7773 34.2322 54.7773C33.9371 54.7773 33.6675 54.8438 33.4234 54.9768C33.1792 55.1045 32.9681 55.2828 32.7901 55.5116C32.6171 55.7351 32.4823 55.9905 32.3857 56.2778C32.2941 56.5652 32.2483 56.8658 32.2483 57.1797C32.2483 57.5575 32.3043 57.8954 32.4162 58.1934C32.5281 58.4914 32.6781 58.7441 32.8664 58.9516C33.0546 59.1592 33.2682 59.3161 33.5073 59.4225C33.7464 59.529 33.9931 59.5822 34.2474 59.5822C34.5425 59.5822 34.7586 59.5449 34.896 59.4704C35.0384 59.3959 35.1325 59.3347 35.1783 59.2869C35.2343 59.2283 35.2851 59.1459 35.3309 59.0394C35.3818 58.933 35.4072 58.8106 35.4072 58.6723C35.4072 58.6244 35.4072 58.5738 35.4072 58.5206C35.4123 58.4674 35.4148 58.4142 35.4148 58.361C35.4199 58.3078 35.4225 58.2572 35.4225 58.2094C35.4225 58.1508 35.4199 58.1029 35.4148 58.0657C35.4098 58.0231 35.3996 57.9912 35.3843 57.9699C35.3436 57.9114 35.2724 57.8635 35.1707 57.8262C35.0689 57.789 34.9672 57.7624 34.8655 57.7464C34.7637 57.7305 34.6874 57.7225 34.6366 57.7225C34.6162 57.7225 34.5857 57.7092 34.545 57.6826C34.5043 57.656 34.484 57.624 34.484 57.5868C34.484 57.5442 34.5043 57.5123 34.545 57.491C34.5857 57.4644 34.6162 57.4511 34.6366 57.4511C34.7637 57.4511 34.8731 57.4538 34.9647 57.4591C35.0562 57.4644 35.1503 57.4697 35.247 57.4751C35.3436 57.4804 35.4606 57.483 35.598 57.483C35.7302 57.483 35.8421 57.4777 35.9337 57.4671C36.0253 57.4564 36.1397 57.4511 36.2771 57.4511C36.2974 57.4511 36.3279 57.4591 36.3686 57.4751C36.4144 57.491 36.4373 57.5256 36.4373 57.5788C36.4373 57.6161 36.4144 57.648 36.3686 57.6746C36.3279 57.7012 36.2974 57.7172 36.2771 57.7225C36.1651 57.7544 36.0863 57.8023 36.0405 57.8661C35.9998 57.9247 35.9718 58.0072 35.9566 58.1136C35.9413 58.2306 35.9311 58.3344 35.9261 58.4249C35.921 58.5153 35.9184 58.6111 35.9184 58.7122V58.9277C35.9184 58.9543 35.9235 58.9756 35.9337 58.9915C35.9439 59.0075 35.954 59.0288 35.9642 59.0554C35.9795 59.082 35.9998 59.1059 36.0253 59.1272C36.0507 59.1485 36.0634 59.1698 36.0634 59.1911C36.0634 59.2124 36.0583 59.2416 36.0481 59.2789C36.0431 59.3108 36.0125 59.3321 35.9566 59.3427C35.921 59.3481 35.8498 59.38 35.7429 59.4385C35.6412 59.4917 35.5115 59.5529 35.3538 59.6221C35.1961 59.6913 35.0155 59.7498 34.8121 59.7977C34.6086 59.8509 34.3848 59.8775 34.1406 59.8775ZM37.2119 59.8057C37.1457 59.8057 37.0923 59.7977 37.0516 59.7817C37.0109 59.7711 36.9906 59.7498 36.9906 59.7179C36.9906 59.654 37.0745 59.6061 37.2424 59.5742C37.4357 59.5369 37.5781 59.4758 37.6697 59.3906C37.7613 59.3055 37.807 59.1671 37.807 58.9756V55.3839C37.807 55.1923 37.7689 55.0566 37.6926 54.9768C37.6214 54.897 37.4891 54.8385 37.2958 54.8012C37.2093 54.7853 37.1458 54.764 37.1051 54.7374C37.0644 54.7108 37.044 54.6789 37.044 54.6416C37.044 54.6097 37.0644 54.5884 37.1051 54.5778C37.1458 54.5618 37.1992 54.5538 37.2653 54.5538C37.4586 54.5538 37.6214 54.5565 37.7536 54.5618C37.891 54.5671 38.0232 54.5724 38.1504 54.5778C38.2826 54.5778 38.4378 54.5778 38.6158 54.5778C38.7837 54.5778 38.9592 54.5778 39.1423 54.5778C39.3305 54.5724 39.5035 54.5698 39.6612 54.5698C39.8341 54.5645 39.9791 54.5618 40.0961 54.5618C40.2182 54.5565 40.2894 54.5538 40.3097 54.5538C40.3352 54.5538 40.3631 54.5591 40.3937 54.5698C40.4242 54.5804 40.442 54.599 40.4471 54.6256C40.4725 54.7746 40.4979 54.9236 40.5234 55.0726C40.5488 55.2163 40.5615 55.3413 40.5615 55.4477C40.5615 55.4956 40.5488 55.5276 40.5234 55.5435C40.503 55.5595 40.4801 55.5675 40.4547 55.5675C40.4293 55.5675 40.4115 55.5621 40.4013 55.5515C40.3911 55.5355 40.381 55.5143 40.3708 55.4876C40.3453 55.3972 40.3199 55.3121 40.2945 55.2322C40.269 55.1471 40.2385 55.0859 40.2029 55.0487C40.1317 54.9635 40.0529 54.9077 39.9664 54.881C39.8799 54.8491 39.7883 54.8332 39.6917 54.8332H38.6921C38.6514 54.8332 38.5955 54.8571 38.5243 54.905C38.4531 54.9529 38.4174 55.0141 38.4174 55.0886V56.7807C38.4174 56.8285 38.4302 56.8711 38.4556 56.9084C38.4861 56.9403 38.5192 56.9563 38.5548 56.9563H39.3102C39.4577 56.9563 39.5594 56.9296 39.6154 56.8764C39.6713 56.8179 39.7171 56.7141 39.7527 56.5652C39.7833 56.4481 39.829 56.3896 39.8901 56.3896C39.9104 56.3896 39.9308 56.4002 39.9511 56.4215C39.9765 56.4428 39.9893 56.4747 39.9893 56.5173C39.9893 56.5385 39.9867 56.5864 39.9816 56.6609C39.9816 56.7354 39.9791 56.8126 39.974 56.8924C39.9689 56.9722 39.9664 57.0334 39.9664 57.076C39.9664 57.1292 39.9664 57.201 39.9664 57.2915C39.9715 57.3766 39.974 57.4591 39.974 57.5389C39.9791 57.6187 39.9816 57.6693 39.9816 57.6906C39.9816 57.7278 39.9766 57.7597 39.9664 57.7863C39.9613 57.8129 39.9435 57.8262 39.913 57.8262C39.8367 57.8262 39.7782 57.7411 39.7375 57.5708C39.707 57.4484 39.6663 57.358 39.6154 57.2995C39.5645 57.2409 39.4882 57.2117 39.3865 57.2117H38.6769C38.5904 57.2117 38.5243 57.225 38.4785 57.2516C38.4378 57.2729 38.4174 57.3287 38.4174 57.4192V58.9516C38.4174 59.1538 38.4581 59.2948 38.5395 59.3747C38.6209 59.4492 38.7481 59.4864 38.921 59.4864H39.4857C39.6485 59.4864 39.7833 59.4784 39.8901 59.4625C40.002 59.4412 40.0986 59.4039 40.18 59.3507C40.2614 59.2922 40.3326 59.215 40.3937 59.1192C40.4598 59.0235 40.5336 58.8958 40.6149 58.7361C40.6302 58.7042 40.648 58.6776 40.6684 58.6563C40.6887 58.635 40.7116 58.6271 40.737 58.6324C40.7625 58.6377 40.7828 58.651 40.7981 58.6723C40.8133 58.6882 40.821 58.7122 40.821 58.7441C40.821 58.792 40.8082 58.8771 40.7828 58.9995C40.7574 59.1166 40.7243 59.239 40.6836 59.3667C40.648 59.4944 40.6149 59.5955 40.5844 59.67C40.5692 59.7072 40.5539 59.7391 40.5386 59.7658C40.5285 59.7924 40.5081 59.8057 40.4776 59.8057C40.2334 59.8057 40.0071 59.803 39.7985 59.7977C39.59 59.7924 39.3916 59.787 39.2034 59.7817C39.0151 59.7764 38.8295 59.7711 38.6464 59.7658C38.4683 59.7604 38.2826 59.7578 38.0894 59.7578C37.9774 59.7578 37.8808 59.7604 37.7994 59.7658C37.718 59.7764 37.6341 59.7844 37.5476 59.7897C37.4611 59.8003 37.3492 59.8057 37.2119 59.8057ZM41.3814 59.8057C41.3153 59.8057 41.2619 59.7977 41.2212 59.7817C41.1805 59.7711 41.1601 59.7498 41.1601 59.7179C41.1601 59.6806 41.1805 59.6513 41.2212 59.6301C41.2619 59.6088 41.3254 59.5902 41.4119 59.5742C41.5391 59.5476 41.6434 59.4837 41.7248 59.3826C41.8061 59.2815 41.8596 59.1379 41.885 58.9516C41.946 58.4727 41.9994 58.0178 42.0452 57.5868C42.091 57.1505 42.1266 56.7594 42.1521 56.4135C42.1826 56.0623 42.1978 55.775 42.1978 55.5515C42.1978 55.5089 42.1978 55.4637 42.1978 55.4158C42.1978 55.3679 42.1953 55.3254 42.1902 55.2881C42.1851 55.2455 42.1775 55.203 42.1673 55.1604C42.1571 55.1125 42.1266 55.0673 42.0757 55.0247C41.9842 54.9449 41.8952 54.8917 41.8087 54.8651C41.7222 54.8332 41.6205 54.8066 41.5035 54.7853C41.4526 54.7746 41.4119 54.756 41.3814 54.7294C41.3509 54.6975 41.3356 54.6629 41.3356 54.6256C41.3356 54.5831 41.3585 54.5591 41.4043 54.5538C41.4552 54.5432 41.5187 54.5378 41.595 54.5378C41.6459 54.5378 41.7222 54.5405 41.824 54.5458C41.9308 54.5511 42.0452 54.5591 42.1673 54.5698C42.2894 54.5804 42.4013 54.5884 42.503 54.5937C42.6099 54.599 42.6887 54.6017 42.7396 54.6017C42.7752 54.6017 42.8057 54.6123 42.8311 54.6336C42.8566 54.6549 42.8744 54.6868 42.8845 54.7294C42.91 54.8252 42.9354 54.9263 42.9608 55.0327C42.9863 55.1391 43.0168 55.2429 43.0524 55.344L44.258 58.5446C44.2732 58.5818 44.3012 58.6058 44.3419 58.6164C44.3826 58.6217 44.4131 58.6058 44.4335 58.5685L45.9366 55.2961C45.9621 55.2056 45.9875 55.1045 46.0129 54.9928C46.0384 54.881 46.0587 54.7826 46.074 54.6975C46.0892 54.6283 46.1147 54.5937 46.1503 54.5937H46.425C46.5776 54.5937 46.7378 54.5831 46.9057 54.5618C47.0786 54.5405 47.2083 54.5299 47.2948 54.5299C47.3202 54.5299 47.3533 54.5352 47.394 54.5458C47.4347 54.5511 47.455 54.5724 47.455 54.6097C47.455 54.6469 47.4398 54.6762 47.4093 54.6975C47.3838 54.7188 47.333 54.7454 47.2566 54.7773C47.1905 54.8039 47.1168 54.8332 47.0354 54.8651C46.954 54.897 46.8777 54.9289 46.8065 54.9609C46.7556 54.9822 46.7124 55.0194 46.6768 55.0726C46.6411 55.1205 46.6233 55.1737 46.6233 55.2322C46.6233 55.6047 46.6284 55.9559 46.6386 56.2858C46.6539 56.6104 46.6691 56.9243 46.6844 57.2276C46.6996 57.5256 46.7174 57.8209 46.7378 58.1136C46.7581 58.4062 46.7759 58.7042 46.7912 59.0075C46.8014 59.1725 46.8522 59.3002 46.9438 59.3906C47.0354 59.4758 47.1753 59.5369 47.3635 59.5742C47.4499 59.5902 47.5135 59.6088 47.5542 59.6301C47.5949 59.6513 47.6153 59.6806 47.6153 59.7179C47.6153 59.7498 47.5949 59.7711 47.5542 59.7817C47.5135 59.7977 47.4601 59.8057 47.394 59.8057C47.2566 59.8057 47.1422 59.8003 47.0506 59.7897C46.9642 59.7844 46.8802 59.7791 46.7988 59.7737C46.7174 59.7684 46.6183 59.7658 46.5013 59.7658C46.3995 59.7658 46.313 59.7684 46.2418 59.7737C46.1757 59.7791 46.1019 59.7844 46.0206 59.7897C45.9443 59.8003 45.8374 59.8057 45.7001 59.8057C45.634 59.8057 45.5805 59.7977 45.5399 59.7817C45.4992 59.7711 45.4788 59.7498 45.4788 59.7179C45.4788 59.6806 45.4992 59.6513 45.5399 59.6301C45.5805 59.6035 45.6441 59.5848 45.7306 59.5742C45.8781 59.5529 45.9799 59.4997 46.0358 59.4146C46.0918 59.3241 46.1197 59.1858 46.1197 58.9995C46.1197 58.6164 46.1147 58.2705 46.1045 57.9619C46.0994 57.6533 46.0892 57.35 46.074 57.052C46.0587 56.7487 46.0434 56.4188 46.0282 56.0623C46.0231 56.0038 46.0078 55.9772 45.9824 55.9825C45.957 55.9825 45.9315 56.0091 45.9061 56.0623L44.1512 59.8057C44.141 59.8323 44.1181 59.8456 44.0825 59.8456C44.0469 59.8509 44.024 59.8349 44.0138 59.7977C43.8154 59.1751 43.6018 58.5632 43.3729 57.9619C43.1491 57.3553 42.8947 56.7035 42.6099 56.0064C42.5997 55.9798 42.5819 55.9665 42.5564 55.9665C42.531 55.9665 42.5158 55.9798 42.5107 56.0064C42.4649 56.3789 42.4216 56.7221 42.381 57.0361C42.3453 57.3447 42.3174 57.6506 42.297 57.9539C42.2767 58.2572 42.2665 58.5898 42.2665 58.9516C42.2665 59.0953 42.3097 59.2283 42.3962 59.3507C42.4827 59.4678 42.6048 59.5423 42.7625 59.5742C42.8489 59.5902 42.9125 59.6088 42.9532 59.6301C42.9939 59.6513 43.0143 59.6806 43.0143 59.7179C43.0143 59.7498 42.9939 59.7711 42.9532 59.7817C42.9125 59.7977 42.8591 59.8057 42.793 59.8057C42.6556 59.8057 42.5514 59.8003 42.4801 59.7897C42.414 59.7844 42.353 59.7791 42.297 59.7737C42.2462 59.7684 42.1724 59.7658 42.0757 59.7658C41.9842 59.7658 41.913 59.7684 41.8621 59.7737C41.8112 59.7791 41.7527 59.7844 41.6866 59.7897C41.6205 59.8003 41.5187 59.8057 41.3814 59.8057ZM49.9238 59.8057C49.8578 59.8057 49.8044 59.7977 49.7637 59.7817C49.723 59.7711 49.7026 59.7498 49.7026 59.7179C49.7026 59.654 49.7866 59.6061 49.9544 59.5742C50.1477 59.5369 50.2902 59.4758 50.3817 59.3906C50.4733 59.3055 50.5191 59.1671 50.5191 58.9756V55.3839C50.5191 55.1923 50.4809 55.0566 50.4046 54.9768C50.3334 54.897 50.2011 54.8385 50.0078 54.8012C49.9214 54.7853 49.8578 54.764 49.8171 54.7374C49.7764 54.7108 49.756 54.6789 49.756 54.6416C49.756 54.6097 49.7764 54.5884 49.8171 54.5778C49.8578 54.5618 49.9112 54.5538 49.9773 54.5538C50.1706 54.5538 50.3334 54.5565 50.4657 54.5618C50.603 54.5671 50.7353 54.5724 50.8624 54.5778C50.9947 54.5778 51.1498 54.5778 51.3278 54.5778C51.4957 54.5778 51.6712 54.5778 51.8543 54.5778C52.0426 54.5724 52.2155 54.5698 52.3732 54.5698C52.5462 54.5645 52.6911 54.5618 52.8081 54.5618C52.9302 54.5565 53.0014 54.5538 53.0218 54.5538C53.0472 54.5538 53.0752 54.5591 53.1057 54.5698C53.1362 54.5804 53.154 54.599 53.1591 54.6256C53.1845 54.7746 53.21 54.9236 53.2353 55.0726C53.2608 55.2163 53.2735 55.3413 53.2735 55.4477C53.2735 55.4956 53.2608 55.5276 53.2353 55.5435C53.2151 55.5595 53.1922 55.5675 53.1667 55.5675C53.1413 55.5675 53.1235 55.5621 53.1133 55.5515C53.1032 55.5355 53.093 55.5143 53.0828 55.4876C53.0574 55.3972 53.0319 55.3121 53.0065 55.2322C52.9811 55.1471 52.9506 55.0859 52.9149 55.0487C52.8437 54.9635 52.7649 54.9077 52.6784 54.881C52.5919 54.8491 52.5004 54.8332 52.4037 54.8332H51.4042C51.3635 54.8332 51.3075 54.8571 51.2363 54.905C51.1651 54.9529 51.1295 55.0141 51.1295 55.0886V56.7807C51.1295 56.8285 51.1422 56.8711 51.1676 56.9084C51.1982 56.9403 51.2312 56.9563 51.2668 56.9563H52.0222C52.1697 56.9563 52.2715 56.9296 52.3274 56.8764C52.3834 56.8179 52.4292 56.7141 52.4648 56.5652C52.4953 56.4481 52.5411 56.3896 52.6021 56.3896C52.6225 56.3896 52.6428 56.4002 52.6632 56.4215C52.6886 56.4428 52.7013 56.4747 52.7013 56.5173C52.7013 56.5385 52.6988 56.5864 52.6937 56.6609C52.6937 56.7354 52.6911 56.8126 52.686 56.8924C52.681 56.9722 52.6784 57.0334 52.6784 57.076C52.6784 57.1292 52.6784 57.201 52.6784 57.2915C52.6835 57.3766 52.686 57.4591 52.686 57.5389C52.6911 57.6187 52.6937 57.6693 52.6937 57.6906C52.6937 57.7278 52.6886 57.7597 52.6784 57.7863C52.6733 57.8129 52.6555 57.8262 52.625 57.8262C52.5487 57.8262 52.4902 57.7411 52.4495 57.5708C52.419 57.4484 52.3783 57.358 52.3274 57.2995C52.2766 57.2409 52.2002 57.2117 52.0985 57.2117H51.3889C51.3024 57.2117 51.2363 57.225 51.1905 57.2516C51.1498 57.2729 51.1295 57.3287 51.1295 57.4192V58.9516C51.1295 59.1538 51.1702 59.2948 51.2516 59.3747C51.333 59.4492 51.4601 59.4864 51.6331 59.4864H52.1977C52.3605 59.4864 52.4953 59.4784 52.6021 59.4625C52.714 59.4412 52.8107 59.4039 52.8921 59.3507C52.9734 59.2922 53.0447 59.215 53.1057 59.1192C53.1718 59.0235 53.2456 58.8958 53.327 58.7361C53.3422 58.7042 53.36 58.6776 53.3804 58.6563C53.4007 58.635 53.4236 58.6271 53.449 58.6324C53.4745 58.6377 53.4948 58.651 53.5101 58.6723C53.5254 58.6882 53.533 58.7122 53.533 58.7441C53.533 58.792 53.5203 58.8771 53.4948 58.9995C53.4694 59.1166 53.4363 59.239 53.3956 59.3667C53.36 59.4944 53.327 59.5955 53.2965 59.67C53.2812 59.7072 53.2659 59.7391 53.2507 59.7658C53.2405 59.7924 53.2201 59.8057 53.1896 59.8057C52.9455 59.8057 52.7191 59.803 52.5105 59.7977C52.302 59.7924 52.1036 59.787 51.9154 59.7817C51.7272 59.7764 51.5415 59.7711 51.3584 59.7658C51.1803 59.7604 50.9947 59.7578 50.8014 59.7578C50.6895 59.7578 50.5928 59.7604 50.5114 59.7658C50.43 59.7764 50.3461 59.7844 50.2596 59.7897C50.1732 59.8003 50.0612 59.8057 49.9238 59.8057ZM55.6591 59.8057C55.593 59.8057 55.5395 59.7977 55.4988 59.7817C55.4582 59.7711 55.4378 59.7498 55.4378 59.7179C55.4378 59.654 55.5217 59.6061 55.6896 59.5742C55.8829 59.5369 56.0228 59.4758 56.1093 59.3906C56.2008 59.3055 56.2466 59.1645 56.2466 58.9676V55.5994C56.2466 55.3599 56.2161 55.1764 56.155 55.0487C56.0991 54.921 55.9745 54.8385 55.7812 54.8012C55.6947 54.7853 55.6311 54.764 55.5904 54.7374C55.5497 54.7108 55.5294 54.6789 55.5294 54.6416C55.5294 54.6097 55.5497 54.5884 55.5904 54.5778C55.6311 54.5618 55.6845 54.5538 55.7506 54.5538C55.888 54.5538 55.9897 54.5538 56.0559 54.5538C56.1271 54.5538 56.1932 54.5565 56.2542 54.5618C56.3153 54.5618 56.3967 54.5618 56.4984 54.5618C56.6001 54.5618 56.7019 54.5591 56.8036 54.5538C56.9104 54.5432 57.0096 54.5352 57.1012 54.5299C57.1927 54.5192 57.2741 54.5139 57.3454 54.5139C57.9252 54.5139 58.3907 54.6389 58.7417 54.889C59.0978 55.1391 59.2758 55.4876 59.2758 55.9346C59.2758 56.2592 59.2147 56.5598 59.0927 56.8365C58.9706 57.1079 58.7824 57.3261 58.528 57.491C58.2788 57.656 57.9583 57.7384 57.5666 57.7384C57.4547 57.7384 57.3682 57.7225 57.3072 57.6906C57.2512 57.6533 57.2233 57.6187 57.2233 57.5868C57.2233 57.5655 57.236 57.5416 57.2614 57.515C57.2919 57.4884 57.3199 57.4751 57.3454 57.4751C57.3708 57.4751 57.4089 57.4777 57.4598 57.483C57.5158 57.4884 57.5946 57.491 57.6963 57.491C58.0015 57.491 58.2305 57.358 58.3831 57.0919C58.5407 56.8259 58.6196 56.4587 58.6196 55.9905C58.6196 55.5648 58.5001 55.2509 58.261 55.0487C58.0219 54.8411 57.7167 54.7374 57.3454 54.7374C57.2029 54.7374 57.0859 54.764 56.9944 54.8172C56.9028 54.8651 56.857 54.9502 56.857 55.0726V58.8798C56.857 59.0714 56.8952 59.2257 56.9715 59.3427C57.0478 59.4598 57.18 59.5369 57.3682 59.5742C57.4547 59.5902 57.5183 59.6088 57.559 59.6301C57.5997 59.6513 57.62 59.6806 57.62 59.7179C57.62 59.7498 57.5997 59.7711 57.559 59.7817C57.5183 59.7977 57.4649 59.8057 57.3988 59.8057C57.2614 59.8057 57.1546 59.8003 57.0783 59.7897C57.0071 59.7791 56.941 59.7711 56.8799 59.7658C56.824 59.7551 56.7477 59.7498 56.651 59.7498C56.5238 59.7498 56.4094 59.7551 56.3076 59.7658C56.211 59.7711 56.1118 59.7791 56.0101 59.7897C55.9134 59.8003 55.7964 59.8057 55.6591 59.8057ZM59.9683 59.8057C59.9022 59.8057 59.8488 59.7977 59.8081 59.7817C59.7674 59.7711 59.747 59.7498 59.747 59.7179C59.747 59.654 59.8309 59.6061 59.9988 59.5742C60.1921 59.5369 60.3345 59.4758 60.4261 59.3906C60.5177 59.3055 60.5634 59.1671 60.5634 58.9756V55.3839C60.5634 55.1923 60.5253 55.0566 60.449 54.9768C60.3778 54.897 60.2455 54.8385 60.0522 54.8012C59.9658 54.7853 59.9022 54.764 59.8615 54.7374C59.8208 54.7108 59.8004 54.6789 59.8004 54.6416C59.8004 54.6097 59.8208 54.5884 59.8615 54.5778C59.9022 54.5618 59.9556 54.5538 60.0217 54.5538C60.215 54.5538 60.3778 54.5565 60.51 54.5618C60.6474 54.5671 60.7796 54.5724 60.9068 54.5778C61.0391 54.5778 61.1942 54.5778 61.3722 54.5778C61.5401 54.5778 61.7156 54.5778 61.8987 54.5778C62.0869 54.5724 62.2599 54.5698 62.4176 54.5698C62.5905 54.5645 62.7355 54.5618 62.8525 54.5618C62.9746 54.5565 63.0458 54.5538 63.0662 54.5538C63.0915 54.5538 63.1195 54.5591 63.15 54.5698C63.1805 54.5804 63.1983 54.599 63.2034 54.6256C63.2289 54.7746 63.2543 54.9236 63.2797 55.0726C63.3052 55.2163 63.3179 55.3413 63.3179 55.4477C63.3179 55.4956 63.3052 55.5276 63.2797 55.5435C63.2594 55.5595 63.2365 55.5675 63.2111 55.5675C63.1856 55.5675 63.1678 55.5621 63.1577 55.5515C63.1475 55.5355 63.1373 55.5143 63.1271 55.4876C63.1017 55.3972 63.0763 55.3121 63.0509 55.2322C63.0255 55.1471 62.9949 55.0859 62.9593 55.0487C62.8881 54.9635 62.8093 54.9077 62.7228 54.881C62.6363 54.8491 62.5448 54.8332 62.4481 54.8332H61.4486C61.4079 54.8332 61.3519 54.8571 61.2807 54.905C61.2095 54.9529 61.1739 55.0141 61.1739 55.0886V56.7807C61.1739 56.8285 61.1866 56.8711 61.212 56.9084C61.2425 56.9403 61.2756 56.9563 61.3112 56.9563H62.0666C62.2141 56.9563 62.3159 56.9296 62.3718 56.8764C62.4278 56.8179 62.4735 56.7141 62.5091 56.5652C62.5397 56.4481 62.5854 56.3896 62.6465 56.3896C62.6668 56.3896 62.6872 56.4002 62.7075 56.4215C62.733 56.4428 62.7457 56.4747 62.7457 56.5173C62.7457 56.5385 62.7431 56.5864 62.7381 56.6609C62.7381 56.7354 62.7355 56.8126 62.7304 56.8924C62.7253 56.9722 62.7228 57.0334 62.7228 57.076C62.7228 57.1292 62.7228 57.201 62.7228 57.2915C62.7279 57.3766 62.7304 57.4591 62.7304 57.5389C62.7355 57.6187 62.7381 57.6693 62.7381 57.6906C62.7381 57.7278 62.733 57.7597 62.7228 57.7863C62.7177 57.8129 62.6999 57.8262 62.6694 57.8262C62.5931 57.8262 62.5346 57.7411 62.4939 57.5708C62.4634 57.4484 62.4227 57.358 62.3718 57.2995C62.3209 57.2409 62.2446 57.2117 62.1429 57.2117H61.4333C61.3468 57.2117 61.2807 57.225 61.2349 57.2516C61.1942 57.2729 61.1739 57.3287 61.1739 57.4192V58.9516C61.1739 59.1538 61.2146 59.2948 61.2959 59.3747C61.3773 59.4492 61.5045 59.4864 61.6775 59.4864H62.2421C62.4049 59.4864 62.5397 59.4784 62.6465 59.4625C62.7584 59.4412 62.855 59.4039 62.9364 59.3507C63.0178 59.2922 63.089 59.215 63.15 59.1192C63.2161 59.0235 63.2899 58.8958 63.3713 58.7361C63.3866 58.7042 63.4044 58.6776 63.4247 58.6563C63.4451 58.635 63.4679 58.6271 63.4934 58.6324C63.5188 58.6377 63.5392 58.651 63.5544 58.6723C63.5697 58.6882 63.5773 58.7122 63.5773 58.7441C63.5773 58.792 63.5646 58.8771 63.5392 58.9995C63.5137 59.1166 63.4807 59.239 63.44 59.3667C63.4044 59.4944 63.3713 59.5955 63.3408 59.67C63.3255 59.7072 63.3103 59.7391 63.295 59.7658C63.2848 59.7924 63.2645 59.8057 63.234 59.8057C62.9898 59.8057 62.7635 59.803 62.5549 59.7977C62.3464 59.7924 62.148 59.787 61.9598 59.7817C61.7716 59.7764 61.5859 59.7711 61.4028 59.7658C61.2247 59.7604 61.0391 59.7578 60.8458 59.7578C60.7339 59.7578 60.6372 59.7604 60.5558 59.7658C60.4744 59.7764 60.3905 59.7844 60.304 59.7897C60.2175 59.8003 60.1056 59.8057 59.9683 59.8057ZM68.8688 59.9014C68.8231 59.9014 68.7315 59.8615 68.5942 59.7817C68.4619 59.7019 68.3347 59.5742 68.2127 59.3986C68.1923 59.372 68.1287 59.2922 68.0219 59.1592C67.9202 59.0261 67.7879 58.8612 67.6251 58.6643C67.4674 58.4621 67.2945 58.2439 67.1063 58.0098C66.9181 57.7757 66.7299 57.5416 66.5416 57.3074C66.3534 57.0733 66.1779 56.8578 66.0152 56.6609C65.8524 56.4587 65.715 56.2911 65.6031 56.1581C65.4963 56.0197 65.4302 55.9346 65.4047 55.9027C65.3691 55.8548 65.3386 55.8229 65.3132 55.8069C65.2877 55.7856 65.2649 55.775 65.2445 55.775C65.2191 55.775 65.2013 55.7963 65.1911 55.8388C65.1809 55.8761 65.1758 55.9107 65.1758 55.9426C65.1707 56.2033 65.1657 56.504 65.1606 56.8445C65.1555 57.1851 65.1504 57.5362 65.1453 57.8981C65.1402 58.2599 65.1377 58.6058 65.1377 58.9357C65.1377 59.0793 65.1707 59.2124 65.2369 59.3347C65.3081 59.4571 65.4378 59.5369 65.626 59.5742C65.7125 59.5902 65.7761 59.6088 65.8168 59.6301C65.8575 59.6513 65.8778 59.6806 65.8778 59.7179C65.8778 59.7498 65.8575 59.7711 65.8168 59.7817C65.7761 59.7977 65.7227 59.8057 65.6565 59.8057C65.5192 59.8057 65.4149 59.8003 65.3437 59.7897C65.2776 59.7844 65.2165 59.7791 65.1606 59.7737C65.1097 59.7684 65.036 59.7658 64.9393 59.7658C64.8477 59.7658 64.7765 59.7684 64.7257 59.7737C64.6748 59.7791 64.6163 59.7844 64.5502 59.7897C64.484 59.8003 64.3823 59.8057 64.245 59.8057C64.1788 59.8057 64.1254 59.7977 64.0847 59.7817C64.044 59.7711 64.0237 59.7498 64.0237 59.7179C64.0237 59.6806 64.044 59.6513 64.0847 59.6301C64.1254 59.6088 64.189 59.5875 64.2755 59.5662C64.423 59.5236 64.5298 59.4465 64.5959 59.3347C64.6621 59.2177 64.7028 59.0767 64.718 58.9117C64.7384 58.7095 64.7587 58.4435 64.7791 58.1136C64.7994 57.7783 64.8172 57.4059 64.8325 56.9962C64.8477 56.5811 64.8554 56.1554 64.8554 55.7191C64.8554 55.4371 64.7842 55.2349 64.6417 55.1125C64.5044 54.9901 64.3238 54.8917 64.1 54.8172C64.0796 54.8066 64.0339 54.7853 63.9626 54.7533C63.8965 54.7161 63.8634 54.6735 63.8634 54.6256C63.8634 54.5778 63.8863 54.5485 63.9321 54.5378C63.9779 54.5219 64.0135 54.5139 64.0389 54.5139C64.1865 54.5192 64.306 54.5245 64.3976 54.5299C64.4891 54.5299 64.5705 54.5325 64.6417 54.5378C64.7129 54.5432 64.7918 54.5485 64.8783 54.5538C64.9647 54.5538 65.0766 54.5538 65.214 54.5538C65.2598 54.5538 65.2954 54.5671 65.3208 54.5937C65.3462 54.6203 65.3717 54.6522 65.3971 54.6895C65.4175 54.7214 65.4836 54.8119 65.5955 54.9609C65.7125 55.1045 65.8549 55.2881 66.0228 55.5116C66.1957 55.7298 66.384 55.9692 66.5874 56.2299C66.7909 56.4853 66.9944 56.7434 67.1978 57.0041C67.4013 57.2595 67.5895 57.499 67.7625 57.7225C67.9354 57.9406 68.0779 58.1216 68.1898 58.2652C68.3068 58.4089 68.3754 58.494 68.3958 58.5206C68.4161 58.5419 68.4441 58.5738 68.4797 58.6164C68.5204 58.659 68.556 58.6803 68.5865 58.6803C68.6323 58.6803 68.6577 58.6244 68.6628 58.5126C68.6628 58.4382 68.6628 58.2972 68.6628 58.0896C68.6679 57.8768 68.6705 57.6214 68.6705 57.3234C68.6756 57.0201 68.6781 56.6929 68.6781 56.3417C68.6781 55.9905 68.6781 55.6313 68.6781 55.2642C68.673 55.1577 68.6196 55.062 68.5179 54.9768C68.4161 54.8917 68.322 54.8411 68.2355 54.8252C68.1491 54.8092 68.0702 54.7879 67.999 54.7613C67.9278 54.7347 67.8922 54.7028 67.8922 54.6655C67.8922 54.6336 67.9278 54.6123 67.999 54.6017C68.0702 54.5857 68.1389 54.5778 68.205 54.5778C68.2559 54.5778 68.3042 54.5778 68.35 54.5778C68.4009 54.5778 68.4492 54.5778 68.495 54.5778C68.5458 54.5778 68.5942 54.5778 68.6399 54.5778C68.762 54.5778 68.8587 54.5778 68.9299 54.5778C69.0011 54.5724 69.0774 54.5671 69.1588 54.5618C69.2453 54.5565 69.3648 54.5538 69.5174 54.5538C69.5835 54.5538 69.637 54.5618 69.6777 54.5778C69.7183 54.5884 69.7387 54.6097 69.7387 54.6416C69.7387 54.7161 69.6548 54.7693 69.4869 54.8012C69.2987 54.8385 69.1741 54.8864 69.113 54.9449C69.052 55.0034 69.0164 55.0992 69.0062 55.2322C69.0062 55.2588 69.0037 55.3626 68.9986 55.5435C68.9986 55.7244 68.9986 55.9532 68.9986 56.2299C68.9986 56.5066 68.996 56.8046 68.9909 57.1239C68.9909 57.4431 68.9909 57.7624 68.9909 58.0816C68.9909 58.3956 68.9909 58.6776 68.9909 58.9277C68.9909 59.0554 68.9935 59.1725 68.9986 59.2789C69.0087 59.38 69.0164 59.4678 69.0215 59.5423C69.0265 59.6114 69.0291 59.6647 69.0291 59.7019C69.0291 59.787 69.0113 59.8402 68.9757 59.8615C68.9452 59.8881 68.9095 59.9014 68.8688 59.9014ZM71.4472 59.8057C71.3811 59.8057 71.3277 59.7977 71.287 59.7817C71.2463 59.7711 71.2259 59.7498 71.2259 59.7179C71.2259 59.6806 71.2463 59.6513 71.287 59.6301C71.3277 59.6088 71.3913 59.5902 71.4777 59.5742C71.671 59.5369 71.8186 59.4731 71.9203 59.3826C72.022 59.2869 72.0729 59.1432 72.0729 58.9516V55.8548C72.0729 55.61 72.0678 55.4238 72.0576 55.2961C72.0475 55.1631 72.0297 55.0699 72.0042 55.0167C71.9839 54.9635 71.9534 54.9343 71.9127 54.9289C71.8414 54.913 71.7651 54.905 71.6838 54.905C71.6075 54.8997 71.5032 54.897 71.3709 54.897H71.0123C70.8902 54.897 70.7681 54.9236 70.6461 54.9768C70.5291 55.0247 70.4426 55.1019 70.3866 55.2083C70.3714 55.2349 70.3459 55.2748 70.3103 55.328C70.2747 55.3759 70.2366 55.4185 70.1959 55.4557C70.1552 55.493 70.1145 55.5116 70.0738 55.5116C70.0534 55.5116 70.0382 55.501 70.028 55.4797C70.0229 55.4584 70.0204 55.4344 70.0204 55.4078C70.0204 55.3546 70.0331 55.3014 70.0585 55.2482C70.1297 55.0939 70.1806 54.9582 70.2111 54.8411C70.2467 54.7188 70.2747 54.5751 70.2951 54.4101C70.3052 54.3197 70.323 54.2665 70.3485 54.2505C70.379 54.2345 70.4044 54.2266 70.4248 54.2266C70.4451 54.2266 70.4756 54.2585 70.5163 54.3223C70.5621 54.3862 70.5952 54.4394 70.6155 54.482C70.646 54.5352 70.7147 54.5751 70.8215 54.6017C70.9335 54.6283 71.0428 54.6416 71.1496 54.6416H73.8355C74.0135 54.6416 74.1585 54.631 74.2704 54.6097C74.3823 54.5884 74.4789 54.5591 74.5603 54.5219C74.6214 54.49 74.6697 54.4554 74.7053 54.4181C74.746 54.3809 74.7969 54.3623 74.8579 54.3623C74.8732 54.3623 74.8859 54.3835 74.8961 54.4261C74.9062 54.4634 74.9113 54.5033 74.9113 54.5458C74.9113 54.5724 74.9062 54.6097 74.8961 54.6576C74.891 54.7055 74.8859 54.7427 74.8808 54.7693C74.8656 54.8651 74.8503 54.9343 74.835 54.9768C74.8249 55.0194 74.8172 55.0566 74.8121 55.0886C74.807 55.1205 74.8045 55.171 74.8045 55.2402V55.336C74.8045 55.3839 74.7943 55.4398 74.774 55.5036C74.7536 55.5621 74.7231 55.5914 74.6824 55.5914C74.6468 55.5914 74.6188 55.5621 74.5985 55.5036C74.5781 55.4451 74.5578 55.3653 74.5374 55.2642C74.5171 55.1524 74.4561 55.0646 74.3543 55.0008C74.2526 54.9316 74.0796 54.897 73.8355 54.897H73.0648C72.9529 54.897 72.869 54.913 72.813 54.9449C72.7571 54.9768 72.7215 55.0566 72.7062 55.1843C72.6909 55.3121 72.6833 55.5222 72.6833 55.8149V58.9516C72.6833 59.1432 72.7367 59.2869 72.8435 59.3826C72.9504 59.4731 73.0979 59.5369 73.2861 59.5742C73.3726 59.5902 73.4362 59.6088 73.4768 59.6301C73.5175 59.6513 73.5379 59.6806 73.5379 59.7179C73.5379 59.7498 73.5175 59.7711 73.4768 59.7817C73.4362 59.7977 73.3827 59.8057 73.3166 59.8057C73.1793 59.8057 73.0648 59.8003 72.9733 59.7897C72.8868 59.7844 72.8029 59.7791 72.7215 59.7737C72.6401 59.7684 72.5409 59.7658 72.4239 59.7658C72.2967 59.7658 72.1848 59.7684 72.0882 59.7737C71.9966 59.7791 71.8999 59.7844 71.7982 59.7897C71.7016 59.8003 71.5846 59.8057 71.4472 59.8057ZM75.4302 59.8057C75.364 59.8057 75.3106 59.7977 75.2699 59.7817C75.2293 59.7711 75.2089 59.7498 75.2089 59.7179C75.2089 59.654 75.2928 59.6061 75.4607 59.5742C75.654 59.5369 75.7964 59.4758 75.888 59.3906C75.9795 59.3055 76.0253 59.1671 76.0253 58.9756V55.3839C76.0253 55.1923 75.9872 55.0566 75.9109 54.9768C75.8397 54.897 75.7074 54.8385 75.5141 54.8012C75.4276 54.7853 75.3641 54.764 75.3234 54.7374C75.2827 54.7108 75.2623 54.6789 75.2623 54.6416C75.2623 54.6097 75.2827 54.5884 75.3234 54.5778C75.3641 54.5618 75.4175 54.5538 75.4836 54.5538C75.6769 54.5538 75.8397 54.5565 75.9719 54.5618C76.1093 54.5671 76.2415 54.5724 76.3687 54.5778C76.5009 54.5778 76.6561 54.5778 76.8341 54.5778C77.002 54.5778 77.1775 54.5778 77.3606 54.5778C77.5488 54.5724 77.7218 54.5698 77.8795 54.5698C78.0524 54.5645 78.1974 54.5618 78.3144 54.5618C78.4365 54.5565 78.5077 54.5538 78.528 54.5538C78.5535 54.5538 78.5815 54.5591 78.612 54.5698C78.6425 54.5804 78.6603 54.599 78.6654 54.6256C78.6908 54.7746 78.7162 54.9236 78.7417 55.0726C78.7671 55.2163 78.7798 55.3413 78.7798 55.4477C78.7798 55.4956 78.7671 55.5276 78.7417 55.5435C78.7213 55.5595 78.6985 55.5675 78.673 55.5675C78.6476 55.5675 78.6298 55.5621 78.6196 55.5515C78.6094 55.5355 78.5992 55.5143 78.5891 55.4876C78.5636 55.3972 78.5382 55.3121 78.5128 55.2322C78.4873 55.1471 78.4568 55.0859 78.4212 55.0487C78.35 54.9635 78.2712 54.9077 78.1847 54.881C78.0982 54.8491 78.0066 54.8332 77.91 54.8332H76.9104C76.8697 54.8332 76.8138 54.8571 76.7426 54.905C76.6714 54.9529 76.6358 55.0141 76.6358 55.0886V56.7807C76.6358 56.8285 76.6485 56.8711 76.6739 56.9084C76.7044 56.9403 76.7375 56.9563 76.7731 56.9563H77.5285C77.676 56.9563 77.7777 56.9296 77.8337 56.8764C77.8896 56.8179 77.9354 56.7141 77.971 56.5652C78.0016 56.4481 78.0473 56.3896 78.1084 56.3896C78.1287 56.3896 78.1491 56.4002 78.1694 56.4215C78.1949 56.4428 78.2076 56.4747 78.2076 56.5173C78.2076 56.5385 78.205 56.5864 78.1999 56.6609C78.1999 56.7354 78.1974 56.8126 78.1923 56.8924C78.1872 56.9722 78.1847 57.0334 78.1847 57.076C78.1847 57.1292 78.1847 57.201 78.1847 57.2915C78.1898 57.3766 78.1923 57.4591 78.1923 57.5389C78.1974 57.6187 78.1999 57.6693 78.1999 57.6906C78.1999 57.7278 78.1949 57.7597 78.1847 57.7863C78.1796 57.8129 78.1618 57.8262 78.1313 57.8262C78.055 57.8262 77.9965 57.7411 77.9558 57.5708C77.9253 57.4484 77.8846 57.358 77.8337 57.2995C77.7828 57.2409 77.7065 57.2117 77.6048 57.2117H76.8952C76.8087 57.2117 76.7426 57.225 76.6968 57.2516C76.6561 57.2729 76.6358 57.3287 76.6358 57.4192V58.9516C76.6358 59.1538 76.6764 59.2948 76.7578 59.3747C76.8392 59.4492 76.9664 59.4864 77.1393 59.4864H77.704C77.8668 59.4864 78.0016 59.4784 78.1084 59.4625C78.2203 59.4412 78.3169 59.4039 78.3983 59.3507C78.4797 59.2922 78.5509 59.215 78.612 59.1192C78.6781 59.0235 78.7519 58.8958 78.8332 58.7361C78.8485 58.7042 78.8663 58.6776 78.8867 58.6563C78.907 58.635 78.9299 58.6271 78.9553 58.6324C78.9808 58.6377 79.0011 58.651 79.0164 58.6723C79.0316 58.6882 79.0393 58.7122 79.0393 58.7441C79.0393 58.792 79.0265 58.8771 79.0011 58.9995C78.9757 59.1166 78.9426 59.239 78.9019 59.3667C78.8663 59.4944 78.8332 59.5955 78.8027 59.67C78.7875 59.7072 78.7722 59.7391 78.7569 59.7658C78.7468 59.7924 78.7264 59.8057 78.6959 59.8057C78.4517 59.8057 78.2254 59.803 78.0168 59.7977C77.8083 59.7924 77.6099 59.787 77.4217 59.7817C77.2335 59.7764 77.0478 59.7711 76.8647 59.7658C76.6866 59.7604 76.5009 59.7578 76.3077 59.7578C76.1957 59.7578 76.0991 59.7604 76.0177 59.7658C75.9363 59.7764 75.8524 59.7844 75.7659 59.7897C75.6794 59.8003 75.5675 59.8057 75.4302 59.8057ZM79.4392 59.8057C79.3731 59.8057 79.3197 59.795 79.279 59.7737C79.2383 59.7578 79.2179 59.7338 79.2179 59.7019C79.2179 59.6647 79.2383 59.6327 79.279 59.6061C79.3248 59.5742 79.3883 59.5449 79.4697 59.5183C79.602 59.4758 79.7241 59.4119 79.836 59.3268C79.9479 59.2416 80.0445 59.1006 80.1259 58.9037C80.2684 58.5632 80.3981 58.2439 80.5151 57.946C80.6371 57.648 80.7516 57.3553 80.8584 57.068C80.9652 56.7807 81.0746 56.4827 81.1865 56.1741C81.3035 55.8601 81.4256 55.5196 81.5528 55.1524C81.5782 55.0779 81.6011 55.0034 81.6214 54.9289C81.6418 54.8544 81.6545 54.7746 81.6596 54.6895C81.7054 54.6735 81.7512 54.6576 81.7969 54.6416C81.8427 54.6256 81.8885 54.6017 81.9343 54.5698C81.9801 54.5378 82.0106 54.49 82.0258 54.4261C82.0462 54.3623 82.064 54.3197 82.0793 54.2984C82.0843 54.2931 82.0894 54.2904 82.0945 54.2904C82.1047 54.2904 82.1123 54.2957 82.1174 54.3064C82.1276 54.3277 82.1352 54.3543 82.1403 54.3862C82.1505 54.4181 82.1606 54.45 82.1708 54.482C82.2929 54.8864 82.4201 55.2988 82.5523 55.7191C82.6846 56.1395 82.8118 56.5465 82.9338 56.9403C83.061 57.3287 83.1755 57.6799 83.2772 57.9939C83.384 58.3025 83.468 58.5526 83.529 58.7441C83.6002 58.957 83.6765 59.1166 83.7579 59.223C83.8393 59.3294 83.9232 59.4039 84.0097 59.4465C84.1013 59.4891 84.1979 59.521 84.2996 59.5423C84.3861 59.5582 84.4497 59.5848 84.4904 59.6221C84.5311 59.654 84.5514 59.6886 84.5514 59.7258C84.5514 59.7578 84.5311 59.7791 84.4904 59.7897C84.4497 59.8003 84.3963 59.8057 84.3302 59.8057C84.259 59.8057 84.1623 59.8003 84.0402 59.7897C83.9181 59.7844 83.7884 59.7764 83.6511 59.7658C83.5137 59.7604 83.3866 59.7578 83.2696 59.7578C83.1729 59.7578 83.0737 59.7578 82.972 59.7578C82.8703 59.7578 82.7762 59.7604 82.6897 59.7658C82.6032 59.7658 82.5294 59.7658 82.4684 59.7658C82.4023 59.7658 82.3489 59.7578 82.3082 59.7418C82.2675 59.7258 82.2471 59.7019 82.2471 59.67C82.2471 59.6327 82.2726 59.6008 82.3234 59.5742C82.3743 59.5476 82.4328 59.529 82.4989 59.5183C82.6668 59.4917 82.7863 59.4465 82.8575 59.3826C82.9287 59.3188 82.9644 59.2443 82.9644 59.1592C82.9644 59.0793 82.9466 58.9649 82.9109 58.8159C82.8804 58.6616 82.8423 58.4993 82.7965 58.3291C82.7507 58.1535 82.7075 57.9992 82.6668 57.8661C82.6566 57.8236 82.6363 57.7996 82.6057 57.7943C82.5803 57.7837 82.532 57.7784 82.4608 57.7784H81.0187C80.9983 57.7784 80.9754 57.789 80.95 57.8103C80.9296 57.8262 80.9093 57.8635 80.889 57.922C80.8737 57.9752 80.8483 58.0604 80.8126 58.1774C80.777 58.2892 80.7414 58.4089 80.7058 58.5366C80.6702 58.6643 80.6397 58.7787 80.6143 58.8798C80.5888 58.9809 80.5761 59.0448 80.5761 59.0714C80.5761 59.1884 80.6193 59.2869 80.7058 59.3667C80.7923 59.4412 80.8966 59.4944 81.0187 59.5263C81.1865 59.5742 81.2705 59.6274 81.2705 59.6859C81.2705 59.7179 81.2501 59.7418 81.2094 59.7578C81.1687 59.7684 81.1153 59.7737 81.0492 59.7737C80.9831 59.7737 80.8864 59.7711 80.7592 59.7658C80.6321 59.7604 80.4973 59.7578 80.3548 59.7578C80.187 59.7578 80.0242 59.7658 79.8665 59.7817C79.7088 59.7977 79.5664 59.8057 79.4392 59.8057ZM81.2247 57.515H82.4074C82.4786 57.515 82.5142 57.5017 82.5142 57.4751C82.5142 57.4644 82.5116 57.4538 82.5065 57.4431C82.5065 57.4272 82.504 57.4112 82.4989 57.3952L81.9038 55.4477C81.8732 55.352 81.8503 55.3041 81.8351 55.3041C81.8249 55.3041 81.8046 55.3493 81.7741 55.4398L81.0797 57.3952C81.0695 57.4272 81.0644 57.4484 81.0644 57.4591C81.0644 57.4857 81.0772 57.5017 81.1026 57.507C81.1331 57.5123 81.1738 57.515 81.2247 57.515ZM87.3473 59.8216C87.2964 59.8216 87.182 59.8163 87.0039 59.8057C86.831 59.795 86.63 59.7844 86.4011 59.7737C86.1773 59.7684 85.9637 59.7658 85.7602 59.7658C85.6585 59.7658 85.572 59.7684 85.5008 59.7737C85.4346 59.7791 85.3609 59.7844 85.2795 59.7897C85.2032 59.8003 85.0964 59.8057 84.959 59.8057C84.8929 59.8057 84.8395 59.7977 84.7988 59.7817C84.7581 59.7658 84.7377 59.7391 84.7377 59.7019C84.7377 59.6593 84.7581 59.6327 84.7988 59.6221C84.8395 59.6061 84.9031 59.5902 84.9895 59.5742C85.1828 59.5369 85.3151 59.4758 85.3863 59.3906C85.4626 59.3055 85.5008 59.1671 85.5008 58.9756V55.3839C85.5008 55.1923 85.4626 55.0566 85.3863 54.9768C85.3151 54.897 85.1828 54.8385 84.9895 54.8012C84.9031 54.7853 84.8395 54.7693 84.7988 54.7533C84.7581 54.7321 84.7377 54.7001 84.7377 54.6576C84.7377 54.6203 84.7581 54.5937 84.7988 54.5778C84.8395 54.5618 84.8929 54.5538 84.959 54.5538C85.0913 54.5538 85.1956 54.5565 85.2719 54.5618C85.3532 54.5618 85.4321 54.5645 85.5084 54.5698C85.5847 54.5698 85.6839 54.5698 85.806 54.5698C85.8874 54.5698 85.9891 54.5671 86.1112 54.5618C86.2383 54.5565 86.3681 54.5485 86.5003 54.5378C86.6377 54.5272 86.7598 54.5192 86.8666 54.5139C86.9785 54.5086 87.0599 54.5059 87.1107 54.5059C87.6296 54.5059 88.0721 54.5724 88.4384 54.7055C88.8046 54.8332 89.1022 55.0141 89.3311 55.2482C89.56 55.477 89.7279 55.7457 89.8347 56.0543C89.9466 56.3576 90.0026 56.6849 90.0026 57.0361C90.0026 57.4192 89.9339 57.7783 89.7966 58.1136C89.6592 58.4488 89.4685 58.7468 89.2243 59.0075C88.9801 59.2629 88.6978 59.4625 88.3773 59.6061C88.0569 59.7498 87.7135 59.8216 87.3473 59.8216ZM87.2557 59.5423C87.6525 59.5423 88.0035 59.4412 88.3087 59.239C88.6139 59.0368 88.8504 58.7574 89.0183 58.4009C89.1912 58.0444 89.2777 57.6347 89.2777 57.1718C89.2777 56.7886 89.2167 56.4481 89.0946 56.1501C88.9725 55.8468 88.8097 55.5941 88.6063 55.3919C88.4028 55.1844 88.1739 55.0274 87.9195 54.921C87.6652 54.8092 87.4083 54.7533 87.1489 54.7533C86.9302 54.7533 86.7419 54.7613 86.5843 54.7773C86.4317 54.7879 86.3147 54.8278 86.2333 54.897C86.1519 54.9662 86.1112 55.0806 86.1112 55.2402V58.8C86.1112 59.0128 86.1671 59.1725 86.279 59.2789C86.3909 59.3853 86.5334 59.4571 86.7063 59.4944C86.8844 59.5263 87.0675 59.5423 87.2557 59.5423ZM93.1449 59.8775C92.8092 59.8775 92.4888 59.8163 92.1835 59.6939C91.8783 59.5662 91.6087 59.388 91.3747 59.1592C91.1408 58.925 90.9551 58.6483 90.8177 58.3291C90.6804 58.0045 90.6117 57.6453 90.6117 57.2516C90.6117 56.8897 90.6677 56.5439 90.7796 56.214C90.8915 55.8787 91.0568 55.5808 91.2755 55.32C91.4943 55.0593 91.7664 54.8518 92.092 54.6975C92.4175 54.5432 92.7914 54.466 93.2136 54.466C93.5494 54.466 93.8698 54.5299 94.175 54.6576C94.4802 54.78 94.7498 54.9582 94.9838 55.1923C95.2178 55.4211 95.4035 55.6978 95.5408 56.0224C95.6782 56.3417 95.7468 56.6982 95.7468 57.0919C95.7468 57.4484 95.6909 57.7943 95.579 58.1295C95.4671 58.4648 95.3018 58.7627 95.083 59.0235C94.8643 59.2842 94.5921 59.4917 94.2666 59.646C93.941 59.8003 93.5672 59.8775 93.1449 59.8775ZM93.2594 59.5582C93.6511 59.5582 93.9766 59.4731 94.2361 59.3028C94.4955 59.1272 94.6888 58.8851 94.816 58.5765C94.9482 58.2626 95.0143 57.8981 95.0143 57.483C95.0143 57.1159 94.9737 56.77 94.8923 56.4454C94.8109 56.1209 94.6888 55.8362 94.526 55.5914C94.3683 55.3413 94.1699 55.1471 93.9309 55.0088C93.6918 54.8704 93.412 54.8012 93.0915 54.8012C92.71 54.8012 92.3896 54.8864 92.1301 55.0566C91.8707 55.2269 91.6749 55.4664 91.5426 55.775C91.4103 56.0783 91.3442 56.4375 91.3442 56.8525C91.3442 57.225 91.3824 57.5735 91.4587 57.8981C91.5401 58.2227 91.6596 58.51 91.8173 58.7601C91.9801 59.0102 92.181 59.207 92.4201 59.3507C92.6592 59.4891 92.9389 59.5582 93.2594 59.5582Z" fill="#887A7A"/>
<path d="M145.62 79.7409C144.48 79.7409 143.341 79.4642 142.201 78.9108C141.103 78.3575 140.065 77.5487 139.088 76.4845C137.664 74.952 136.423 73.1216 135.365 70.9932C134.347 68.8222 133.472 66.6086 132.74 64.3525C132.007 62.0538 131.438 59.968 131.031 58.095C130.624 56.1794 130.339 54.7108 130.176 53.6892C128.67 56.7115 127.104 59.7126 125.476 62.6924C123.889 65.6296 121.854 68.5242 119.372 71.3763C117.012 74.0581 114.427 76.0801 111.62 77.4422C108.812 78.847 105.902 79.5494 102.891 79.5494C101.955 79.5494 100.998 79.4855 100.022 79.3578C97.3358 79.0173 95.3622 78.2085 94.1006 76.9314C92.8391 75.6544 92.2083 74.2922 92.2083 72.8449C92.2083 71.2699 92.8798 69.8438 94.2227 68.5668C95.5656 67.2897 97.4783 66.6512 99.9606 66.6512C100.775 66.6512 101.649 66.7363 102.585 66.9066C103.521 67.0769 104.498 67.3536 105.515 67.7367C105.963 67.907 106.187 68.0985 106.187 68.3114C106.187 68.4816 106.024 68.5668 105.699 68.5668C105.495 68.5668 105.332 68.5455 105.21 68.5029C103.867 67.9921 102.667 67.7367 101.609 67.7367C99.8996 67.7367 98.5974 68.2688 97.7021 69.333C96.8068 70.3546 96.3592 71.4827 96.3592 72.7172C96.3592 73.9091 96.8475 75.0159 97.8242 76.0375C98.8008 77.0591 100.307 77.5699 102.341 77.5699C104.905 77.5699 107.265 76.9527 109.422 75.7182C111.579 74.4412 113.593 72.7172 115.465 70.5462C117.337 68.3326 119.128 65.8424 120.837 63.0755C122.546 60.266 124.214 57.35 125.842 54.3277C128.569 49.2621 131.031 44.6647 133.228 40.5356C135.466 36.3639 137.827 32.8308 140.309 29.9361C139.21 29.8084 138.091 29.7233 136.952 29.6807C135.812 29.6381 134.653 29.6169 133.472 29.6169C130.909 29.6169 128.243 29.7658 125.476 30.0638C122.749 30.3192 120.104 30.7449 117.541 31.3409C114.082 32.1071 111.111 33.2564 108.629 34.7889C106.146 36.2788 104.172 37.9602 102.707 39.8332C101.283 41.6637 100.388 43.5154 100.022 45.3884C99.8996 46.0695 99.8385 46.7293 99.8385 47.3678C99.8385 49.5388 100.53 51.2202 101.914 52.4121C103.298 53.604 104.885 54.2 106.675 54.2C107.815 54.2 108.954 53.9659 110.094 53.4976C111.274 52.9868 112.332 52.1993 113.268 51.1351C114.041 50.2837 114.611 49.4962 114.977 48.7726C115.343 48.0063 115.547 47.4317 115.587 47.0485C115.628 46.4526 115.75 46.1546 115.954 46.1546C116.076 46.1546 116.177 46.261 116.259 46.4739C116.381 46.6867 116.421 46.8995 116.381 47.1124C116.218 48.0915 115.933 49.0492 115.526 49.9857C115.119 50.9222 114.631 51.7098 114.061 52.3483C112.922 53.5828 111.62 54.498 110.155 55.0939C108.69 55.6899 107.286 55.9879 105.943 55.9879C104.356 55.9879 102.85 55.626 101.426 54.9024C100.042 54.1787 98.9229 53.1358 98.0683 51.7736C97.2137 50.3689 96.7865 48.6448 96.7865 46.6016C96.7865 44.2178 97.58 41.7914 99.1671 39.3224C100.754 36.8109 103.135 34.5973 106.309 32.6818C109.524 30.7662 113.512 29.4466 118.273 28.7229C120.674 28.3824 122.994 28.127 125.232 27.9567C127.511 27.7439 129.708 27.6374 131.824 27.6374C133.533 27.6374 135.202 27.7013 136.83 27.829C138.457 27.9567 140.065 28.127 141.652 28.3398C142.71 27.1905 143.422 26.6158 143.788 26.6158C144.073 26.6158 144.216 26.8499 144.216 27.3182C144.216 27.4884 144.195 27.7013 144.155 27.9567C144.114 28.2121 144.053 28.4675 143.972 28.7229C145.07 28.8932 146.128 29.0848 147.146 29.2976C148.204 29.4679 149.14 29.6807 149.954 29.9361C153.168 30.8726 155.508 32.1071 156.973 33.6396C158.479 35.1294 159.232 36.747 159.232 38.4923C159.232 40.3653 158.418 42.2383 156.79 44.1113C155.203 45.9843 152.945 47.6445 150.015 49.0918C147.125 50.5391 143.727 51.6033 139.821 52.2844C138.559 52.4973 137.44 52.6463 136.463 52.7314C135.527 52.8165 134.714 52.8804 134.022 52.9229C134.103 53.3486 134.286 54.2426 134.571 55.6047C134.856 56.9669 135.263 58.5845 135.792 60.4575C136.321 62.288 136.992 64.2248 137.806 66.2681C138.661 68.3114 139.678 70.2482 140.858 72.0786C141.794 73.526 142.751 74.7179 143.727 75.6544C144.704 76.5909 145.742 77.0591 146.841 77.0591C147.532 77.0591 148.244 76.8676 148.977 76.4845C149.75 76.1013 150.544 75.4841 151.358 74.6327C152.334 73.6111 153.209 72.4618 153.982 71.1847C154.796 69.8651 155.488 68.6306 156.058 67.4813C156.628 66.3319 157.014 65.5231 157.218 65.0549C157.543 64.4589 157.889 64.161 158.255 64.161C158.377 64.161 158.438 64.2461 158.438 64.4164C158.438 64.5015 158.377 64.7143 158.255 65.0549C158.052 65.5231 157.747 66.2468 157.34 67.2259C156.933 68.1624 156.444 69.2053 155.875 70.3546C155.305 71.504 154.695 72.632 154.043 73.7388C153.392 74.8456 152.741 75.7821 152.09 76.5483C151.154 77.6125 150.096 78.4 148.916 78.9108C147.776 79.4642 146.678 79.7409 145.62 79.7409ZM131.458 51.1989C132.638 50.9861 133.9 50.8371 135.243 50.752C136.586 50.6668 137.908 50.5391 139.21 50.3689C141.326 50.0709 143.32 49.4962 145.192 48.6448C147.064 47.7509 148.712 46.6867 150.137 45.4522C151.602 44.2178 152.741 42.9194 153.555 41.5572C154.369 40.1525 154.776 38.8116 154.776 37.5345C154.776 34.6399 152.924 32.6392 149.221 31.5324C148.489 31.3196 147.532 31.1067 146.352 30.8939C145.213 30.6811 144.175 30.4895 143.239 30.3192C141.286 33.8098 139.271 37.2366 137.196 40.5995C135.161 43.9623 133.249 47.4955 131.458 51.1989ZM159.25 77.0591C158.803 77.0591 158.253 76.9527 157.602 76.7399C156.992 76.527 156.442 76.1439 155.954 75.5905C155.507 74.9946 155.283 74.1219 155.283 72.9726C155.283 71.8658 155.527 70.8016 156.015 69.78C156.544 68.7158 157.033 67.6941 157.48 66.715C157.358 66.715 157.216 66.6725 157.053 66.5873C156.931 66.5022 156.87 66.3745 156.87 66.2042C156.87 66.034 156.91 65.8637 156.992 65.6934C157.155 65.3529 157.338 64.991 157.541 64.6079C157.745 64.2248 157.928 63.8204 158.091 63.3947C158.701 62.0751 159.311 60.8194 159.922 59.6274C160.532 58.393 161.061 57.3075 161.508 56.371C161.957 55.4345 162.73 54.9662 163.829 54.9662H167.613C166.921 55.5196 166.291 56.1369 165.721 56.8179C165.192 57.4565 164.52 58.6484 163.706 60.3937C163.706 60.3937 163.564 60.6917 163.279 61.2876C162.994 61.8836 162.628 62.6498 162.18 63.5863C161.773 64.4802 161.346 65.3954 160.899 66.3319C160.492 67.2684 160.146 68.0559 159.861 68.6945C159.332 69.8864 158.986 70.8442 158.823 71.5678C158.66 72.2489 158.579 72.8874 158.579 73.4834C158.579 74.8881 159.027 75.5905 159.922 75.5905C160.899 75.5905 162.079 74.7604 163.462 73.1003C164.602 71.6955 165.721 70.0141 166.82 68.056C167.918 66.0978 168.956 64.0758 169.933 61.99C170.95 59.9041 171.845 58.0311 172.618 56.371C173.066 55.4345 173.86 54.9662 174.999 54.9662H178.356C177.746 55.477 177.237 55.9666 176.83 56.4348C176.423 56.8605 176.016 57.4565 175.61 58.2227C175.243 58.9464 174.735 59.9893 174.083 61.3515C173.554 62.5008 172.985 63.7353 172.374 65.0549C171.805 66.3319 171.296 67.5451 170.848 68.6945C170.401 69.8438 170.116 70.7803 169.993 71.504C169.953 71.9297 169.912 72.2489 169.872 72.4618C169.831 72.6746 169.811 72.9087 169.811 73.1641C169.811 73.9729 169.933 74.5476 170.177 74.8881C170.462 75.2287 170.787 75.399 171.153 75.399C172.13 75.399 173.107 74.8243 174.083 73.675C175.101 72.5256 176.057 71.1209 176.952 69.4607C177.888 67.8005 178.682 66.2255 179.333 64.7356C179.577 64.2674 179.801 64.0333 180.005 64.0333C180.249 64.0333 180.371 64.1822 180.371 64.4802C180.371 64.6931 180.289 64.9485 180.127 65.2465C179.679 66.2681 179.13 67.4387 178.478 68.7583C177.827 70.0779 177.095 71.3763 176.281 72.6533C175.467 73.9304 174.572 74.9946 173.595 75.8459C172.618 76.6547 171.56 77.0591 170.421 77.0591C169.404 77.0591 168.569 76.676 167.918 75.9098C167.267 75.101 166.942 73.9729 166.942 72.5256C166.942 71.3763 167.145 70.1418 167.552 68.8222C166.86 70.0992 166.067 71.3763 165.171 72.6533C164.276 73.9304 163.32 74.9946 162.302 75.8459C161.285 76.6547 160.268 77.0591 159.25 77.0591ZM182.225 77.0591C181.085 77.0591 180.068 76.6547 179.173 75.8459C178.278 74.9946 177.829 73.675 177.829 71.8871C177.829 70.4823 178.074 68.7583 178.562 66.715C179.091 64.6292 179.722 62.4795 180.455 60.266C181.228 58.0099 181.981 55.9666 182.713 54.1361H179.478C179.193 54.1361 179.051 53.9233 179.051 53.4976C179.051 53.2848 179.091 53.0932 179.173 52.9229C179.295 52.7527 179.458 52.6675 179.661 52.6675H183.324C184.015 51.05 184.748 49.4749 185.521 47.9425C186.294 46.41 187.047 44.9627 187.78 43.6005C188.716 41.8978 189.713 40.6207 190.771 39.7694C191.829 38.918 192.744 38.4923 193.518 38.4923C194.128 38.4923 194.637 38.7477 195.044 39.2586C195.451 39.7268 195.654 40.4505 195.654 41.4295C195.654 42.0255 195.532 42.8556 195.288 43.9198C195.044 44.9414 194.657 46.0269 194.128 47.1762C193.843 47.7722 193.436 48.6236 192.907 49.7303C192.419 50.8371 191.931 51.8162 191.442 52.6675H194.372C194.657 52.6675 194.799 52.8804 194.799 53.3061C194.799 53.4763 194.759 53.6679 194.677 53.8807C194.596 54.051 194.474 54.1361 194.311 54.1361H190.71C189.692 55.9666 188.533 57.7544 187.23 59.4997C185.928 61.245 184.382 62.9903 182.591 64.7356C182.469 65.1187 182.306 65.6721 182.103 66.3958C181.94 67.1194 181.777 67.8644 181.615 68.6306C181.492 69.3543 181.37 69.9715 181.248 70.4823C181.167 70.9932 181.126 71.2486 181.126 71.2486C181.004 71.802 180.943 72.3128 180.943 72.781C180.943 73.6749 181.147 74.3348 181.553 74.7604C181.96 75.1436 182.428 75.3351 182.957 75.3351C183.283 75.3351 183.609 75.2925 183.934 75.2074C184.26 75.0797 184.626 74.8669 185.033 74.5689C186.457 73.5047 187.698 72.0574 188.756 70.2269C189.855 68.3965 190.811 66.6299 191.625 64.9272C191.869 64.4164 192.114 64.161 192.358 64.161C192.521 64.161 192.602 64.2887 192.602 64.5441C192.602 64.6718 192.541 64.9059 192.419 65.2465C191.524 67.2046 190.771 68.7796 190.16 69.9715C189.55 71.1634 188.96 72.1638 188.39 72.9726C187.82 73.7388 187.149 74.505 186.376 75.2713C185.806 75.8672 185.155 76.3142 184.422 76.6122C183.69 76.9101 182.957 77.0591 182.225 77.0591ZM187.047 52.6675H190.16C190.73 51.5608 191.259 50.4753 191.747 49.4111C192.276 48.3469 192.744 47.2827 193.151 46.2185C193.436 45.5374 193.68 44.7711 193.884 43.9198C194.087 43.0684 194.189 42.4086 194.189 41.9404C194.189 41.3018 194.047 40.9826 193.761 40.9826C193.558 40.9826 193.253 41.1741 192.846 41.5572C192.48 41.8978 192.012 42.4937 191.442 43.3451C190.71 44.4093 189.977 45.7928 189.245 47.4955C188.553 49.1557 187.82 50.8797 187.047 52.6675ZM183.079 62.6924C184.26 61.4153 185.358 60.0531 186.376 58.6058C187.434 57.1585 188.41 55.6686 189.306 54.1361H186.437C185.786 55.7112 185.175 57.2436 184.606 58.7335C184.036 60.2234 183.527 61.543 183.079 62.6924ZM185.653 77.5699C187.363 73.9091 189.133 70.0779 190.964 66.0765C192.836 62.0326 194.749 57.9673 196.702 53.8807C198.655 49.7942 200.588 45.8992 202.501 42.1958C203.193 40.9187 203.823 39.9184 204.393 39.1947C205.004 38.471 205.797 38.1092 206.774 38.1092C207.14 38.1092 207.567 38.1731 208.056 38.3008C208.544 38.4285 209.012 38.4498 209.46 38.3646C208.931 38.9606 208.198 40.0035 207.262 41.4934C206.367 42.9833 205.349 44.7711 204.21 46.857C203.111 48.9428 201.931 51.1989 200.67 53.6253C199.449 56.0091 198.228 58.4355 197.007 60.9045C195.827 63.3309 194.728 65.6083 193.711 67.7367C194.525 66.6299 195.359 65.587 196.214 64.6079C197.068 63.6289 197.902 62.7775 198.716 62.0538C199.612 61.2025 200.731 60.3085 202.074 59.372C203.457 58.4355 204.82 57.6267 206.163 56.9456C207.547 56.2646 208.646 55.924 209.46 55.924C209.744 55.924 209.948 55.9453 210.07 55.9879C210.07 55.9879 209.846 56.4135 209.399 57.2649C208.951 58.1163 208.381 59.2018 207.689 60.5214C207.038 61.841 206.346 63.267 205.614 64.7995C204.922 66.3319 204.312 67.8005 203.783 69.2053C203.254 70.5675 202.908 71.6955 202.745 72.5895C202.623 73.2706 202.562 73.8452 202.562 74.3135C202.562 74.9946 202.684 75.4628 202.928 75.7182C203.172 75.9311 203.437 76.0375 203.722 76.0375C204.413 76.0375 205.166 75.5905 205.98 74.6966C206.794 73.8027 207.588 72.7172 208.361 71.4401C209.134 70.1205 209.826 68.8435 210.436 67.609C211.087 66.3745 211.576 65.4167 211.901 64.7356C212.145 64.2674 212.39 64.0333 212.634 64.0333C212.878 64.0333 213 64.2035 213 64.5441C213 64.7143 212.939 64.9698 212.817 65.3103C212.288 66.4171 211.677 67.6728 210.986 69.0776C210.335 70.4398 209.582 71.7594 208.727 73.0364C207.913 74.2709 206.998 75.2925 205.98 76.1013C205.004 76.9101 203.946 77.3145 202.806 77.3145C201.992 77.3145 201.158 77.0166 200.303 76.4206C199.449 75.8246 199.021 74.7392 199.021 73.1641C199.021 72.6959 199.062 72.2064 199.144 71.6955C199.225 71.1421 199.367 70.5249 199.571 69.8438C199.815 68.9924 200.222 68.0559 200.792 67.0343C201.361 65.9701 202.094 64.6505 202.989 63.0755C203.396 62.3518 203.6 61.7771 203.6 61.3515C203.6 60.8406 203.355 60.5852 202.867 60.5852C202.46 60.5852 201.911 60.7981 201.219 61.2238C200.527 61.6494 199.652 62.3944 198.594 63.4586C197.577 64.4802 196.315 65.9701 194.81 67.9282C193.304 69.8864 191.697 72.632 189.987 76.1652C189.703 76.7186 189.377 77.0166 189.011 77.0591C188.685 77.0591 188.238 77.0804 187.668 77.123C187.302 77.1655 186.935 77.1868 186.569 77.1868C186.203 77.2294 185.898 77.3571 185.653 77.5699Z" fill="#A79696"/>
</svg>
